<?xml version="1.0" encoding="utf-8"?><svg width="36" height="36" fill="none" xmlns="http://www.w3.org/2000/svg" viewBox="0 0 36 36"><path d="M30.262 10.631C27.17 7.37 22.837 5.344 18 5.344c-9.394 0-16.988 7.65-16.988 17.043 0 2.644.62 5.232 1.744 7.538.169.337.45.563.788.675.112 0 .168.056.28.056H4.108c.112 0 .28-.056.393-.112l2.306-1.125a1.23 1.23 0 0 0 .563-1.688c-.338-.619-1.069-.9-1.688-.562l-1.125.562c-.675-1.631-.956-3.375-1.012-5.175h2.362c.675 0 1.294-.562 1.294-1.294 0-.73-.563-1.293-1.294-1.293H3.712c.394-2.475 1.463-4.725 2.982-6.582l2.025 2.025c.225.225.562.394.9.394.337 0 .675-.112.9-.393a1.256 1.256 0 0 0 0-1.8L8.437 11.53c2.25-1.969 5.12-3.319 8.325-3.544v3.432c0 .675.563 1.293 1.294 1.293.675 0 1.294-.562 1.294-1.293V7.987a14.678 14.678 0 0 1 8.325 3.544L26.1 13.106a1.256 1.256 0 0 0 0 1.8c.225.225.563.394.9.394.337 0 .675-.113.9-.394l1.519-1.519c1.518 1.857 2.531 4.107 2.981 6.582h-2.194c-.675 0-1.293.562-1.293 1.293 0 .732.562 1.294 1.293 1.294h2.363c0 1.8-.338 3.544-1.013 5.232l-1.125-.563a1.23 1.23 0 0 0-1.687.563c-.282.618-.056 1.406.562 1.687l2.306 1.125c.17.112.394.112.563.112h.112c.45 0 .9-.28 1.126-.674 1.18-2.307 1.743-4.95 1.743-7.538-.112-4.669-1.968-8.831-4.893-11.869Z" fill="#fff"/><path d="m21.431 19.35-3.769 2.812a2.606 2.606 0 0 0-1.687 1.07c-.056.112-.113.168-.169.28l-.112.113h.056c-.619 1.181-.281 2.644.844 3.487 1.125.788 2.643.675 3.543-.28h.057l.056-.113c.056-.057.169-.17.225-.282.45-.562.562-1.293.506-1.968l1.463-4.5c.168-.507-.507-.957-1.013-.62Z" fill="#fff"/></svg>