<?xml version="1.0" encoding="utf-8"?><svg width="34" height="40" fill="none" xmlns="http://www.w3.org/2000/svg" viewBox="0 0 34 40"><path d="M33.026 38.61V17.898c0-.06 0-.119-.06-.178 0-.06-.06-.06-.06-.119 0 0 0-.06-.059-.119l-.118-.118c-.06 0-.06-.06-.119-.06-.06 0-.06 0-.119-.06-.059 0-.118 0-.118-.058h-9.496c-.296-1.9-1.424-3.561-3.204-4.451-1.247-.653-2.078-2.078-2.078-3.561V7.749c.89-.296 1.543-1.127 1.543-2.077s-.653-1.78-1.543-2.077V1.399a.686.686 0 0 0-.712-.712.686.686 0 0 0-.712.712v2.196c-.89.297-1.543 1.128-1.543 2.077 0 .95.653 1.78 1.543 2.077v1.543c0 2.078 1.068 3.917 2.849 4.808 1.246.652 2.136 1.84 2.373 3.204h-9.08v-3.026l1.603 1.186a.7.7 0 0 0 1.009-.178.7.7 0 0 0-.178-1.008l-2.73-1.959c-.238-.178-.475-.178-.712-.06a.73.73 0 0 0-.416.653v4.452H1.512c-.06 0-.118 0-.178.059-.06 0-.06 0-.119.06-.059 0-.059.059-.118.059-.06 0-.06.059-.119.118 0 0-.06.06-.06.119 0 .06-.059.06-.059.119s0 .118-.059.178V38.847c0 .06 0 .119.06.178 0 .06.059.06.059.119 0 .06 0 .06.06.119.058.059.118.118.177.118 0 0 .06 0 .06.06.059.06.178.06.296.06h30.86c.12 0 .179 0 .297-.06 0 0 .06 0 .06-.06.06-.059.118-.059.178-.118 0 0 .06-.06.06-.119 0-.06.059-.06.059-.119v-.415ZM16.942 4.96c.475 0 .831.356.831.83 0 .476-.356.832-.83.832a.811.811 0 0 1-.831-.831c0-.475.356-.831.83-.831ZM2.224 19.56l9.852 8.724-9.852 8.664V19.56Zm19.288-.831c-.237 2.077-1.84 3.68-3.857 4.035v-1.068a.686.686 0 0 0-.713-.712.686.686 0 0 0-.712.712v3.62c0 .416.297.712.712.712a.686.686 0 0 0 .713-.712V24.13c2.789-.356 5.044-2.611 5.281-5.46h7.538L16.942 30.657 3.412 18.73h18.1Zm-8.368 10.504 3.324 2.967a.674.674 0 0 0 .474.178c.178 0 .357-.059.475-.178l3.324-2.967 9.733 8.605H3.41l9.733-8.605Zm8.665-.95 9.852-8.664v17.389l-9.852-8.725Z" fill="#fff"/></svg>