<?xml version="1.0" encoding="utf-8"?><svg width="48" height="48" fill="none" xmlns="http://www.w3.org/2000/svg" viewBox="0 0 48 48"><g clip-path="url(#asa)" fill="#111928"><path d="M5.941 11.591a19.458 19.458 0 0 1 4.565-4.744l1.101 2.34 6.286-6.584L8.31 2.18l1.17 2.486a21.773 21.773 0 0 0-5.496 5.602A21.568 21.568 0 0 0 .281 22.386h2.365c0-4.004 1.215-7.711 3.295-10.795ZM45.355 26.796a19.235 19.235 0 0 1-3.112 10.517 19.443 19.443 0 0 1-4.77 5.039l-.884-1.878-6.284 6.583 9.583.423-1.393-2.959a21.752 21.752 0 0 0 5.729-5.92 21.593 21.593 0 0 0 3.495-11.805h-2.364ZM16.875 15.382c.803.008 1.594.07 2.369.18-.005-.143-.01-.287-.01-.433 0-7.039 5.725-12.765 12.764-12.765S44.763 8.09 44.763 15.13c0 6.545-4.951 11.95-11.303 12.678.227.753.406 1.525.532 2.316 7.412-.977 13.135-7.315 13.135-14.994C47.127 6.773 40.353 0 31.998 0S16.869 6.773 16.869 15.129c0 .085.006.168.006.253ZM21.103 34.857c0-1.123-.636-1.892-2.001-2.13.448-.172.947-.676 1.097-.855.148-.179.26-.372.33-.577a1.93 1.93 0 0 0 .108-.643c0-.393-.072-.746-.214-1.06-.142-.311-.375-.568-.674-.799-.532-.413-1.305-.61-1.933-.662v-1.345h-1.16v1.324l-1.052-.003v-1.32h-1.16v1.318H12.33v1.056c0 .228-.017.366.22.413l.089.016c.04.006.504.02.606.035.161.022.276.107.276.322v5.725c0 .178-.088.354-.276.354-.102 0-.567.03-.606.035l-.088.015c-.238.048-.221.186-.221.415v1.177h2.113v1.288h1.16v-1.288h1.052v1.288h1.16v-1.298c.431-.023.891-.09 1.259-.202.464-.14.736-.337 1.053-.584.32-.25.56-.547.727-.89.167-.344.249-.719.249-1.125ZM15.668 29.8h.94c.497 0 .862.082 1.096.245.233.162.349.435.349.82 0 .37-.13.639-.387.809-.26.168-.639.255-1.14.255h-.858v-2.129Zm2.63 5.466a.888.888 0 0 1-.24.354c-.11.103-.259.185-.443.246-.183.06-.413.091-.687.091h-1.219V33.8h1.213c.26 0 .48.022.662.07.183.047.334.117.45.205.117.091.202.2.258.325.054.13.082.271.082.431 0 .152-.025.297-.075.434Z"/><path d="M16.717 17.742c-8.356 0-15.13 6.774-15.13 15.13C1.588 41.226 8.362 48 16.718 48c8.355 0 15.129-6.773 15.129-15.129 0-8.355-6.774-15.129-15.13-15.129Zm0 27.894c-7.04 0-12.766-5.726-12.766-12.765 0-7.039 5.726-12.765 12.766-12.765 7.037 0 12.764 5.726 12.764 12.765 0 7.039-5.727 12.765-12.764 12.765ZM33.764 18.237c-.419.226-.946.337-1.584.337a5.764 5.764 0 0 1-1.524-.208c-.513-.14-1.188-.726-1.188-.726a.3.3 0 0 0-.365.044l-.9.902a.286.286 0 0 0-.084.245c.01.09.063.17.142.218 0 0 .922.778 1.626.97.462.128.95.208 1.463.251v1.477h1.8V20.24c.241-.033.478-.072.705-.13a3.849 3.849 0 0 0 1.336-.609c.37-.272.662-.606.876-1.006.213-.398.32-.863.32-1.397 0-.888-.27-1.566-.809-2.032-.538-.464-1.332-.744-2.382-.837l-1.415-.121c-.505-.051-.864-.171-1.075-.358-.214-.186-.32-.45-.32-.796 0-.387.15-.698.449-.938.299-.239.76-.359 1.386-.359.477 0 .931.059 1.365.17.432.113.933.47.933.47a.297.297 0 0 0 .344-.057l.845-.858a.293.293 0 0 0-.071-.469s-.663-.518-1.295-.69a7.076 7.076 0 0 0-1.191-.212V8.738h-1.8v1.3c-.204.033-.405.07-.595.125-.46.132-.862.333-1.207.598-.346.263-.619.59-.818.975a2.83 2.83 0 0 0-.299 1.317c0 .89.258 1.554.778 1.994.517.436 1.256.703 2.21.797l1.618.138c.49.055.84.18 1.046.38.206.2.307.472.307.818 0 .479-.207.83-.627 1.057Z"/></g><defs><clipPath id="asa"><path fill="#fff" d="M0 0h48v48H0z"/></clipPath></defs></svg>