<?xml version="1.0" encoding="utf-8"?><svg width="240" height="130" fill="none" xmlns="http://www.w3.org/2000/svg" viewBox="0 0 240 130"><path d="M219.831 73.299a107.325 107.325 0 0 1 18.202 57.054l-13.457.351a93.872 93.872 0 0 0-15.919-49.898l11.174-7.507Z" fill="#13C296"/><path d="M167.607 32.354A107.329 107.329 0 0 1 215.878 67.8l-10.679 8.197a93.862 93.862 0 0 0-42.216-31l4.624-12.643Z" fill="#72DDC3"/><path d="M100.604 30.141a107.327 107.327 0 0 1 59.887-.111l-3.731 12.934a93.867 93.867 0 0 0-52.376.098l-3.78-12.92Z" fill="#FBBF24"/><path d="M45.857 67.469a107.328 107.328 0 0 1 48.41-35.258l4.986 12.537C82.5 50.8 67.405 61.62 56.503 75.708l-10.646-8.24Z" fill="#F77"/><path d="M219.831 73.299a107.335 107.335 0 0 1 18.203 57.054l-104.145-.491 74.768-49.056 11.174-7.507Z" fill="#13C296" fill-opacity=".1"/><path d="M167.612 32.351a107.316 107.316 0 0 1 48.271 35.443l-80.911 62.578 28.015-85.378 4.625-12.643Z" fill="#72DDC3" fill-opacity=".1"/><path d="M100.605 30.141a107.327 107.327 0 0 1 59.887-.111l-26.067 99.82-30.04-86.788-3.78-12.92Z" fill="#FBBF24" fill-opacity=".1"/><path d="M46.05 67.914a107.328 107.328 0 0 1 48.41-35.257l38.548 97.675-76.31-54.18-10.647-8.238Z" fill="#F77" fill-opacity=".1"/><path d="M34.56 129.104c-6.057-.047-10.928-5.109-10.073-11.105a107.33 107.33 0 0 1 17.916-45.804l90.948 57.679-98.792-.77Z" fill="#E10E0E" fill-opacity=".1"/><path d="M23.422 128.574a107.33 107.33 0 0 1 18.911-56.823l11.08 7.646a93.867 93.867 0 0 0-16.539 49.696l-13.452-.519Z" fill="#E10E0E"/><path d="M219.831 73.299a107.335 107.335 0 0 1 18.203 57.054l-104.145-.491 74.768-49.056 11.174-7.507Z" fill="#13C296" fill-opacity=".1"/><path d="M167.612 32.351a107.316 107.316 0 0 1 48.271 35.443l-80.911 62.578 28.015-85.378 4.625-12.643Z" fill="#72DDC3" fill-opacity=".1"/><path d="M100.605 30.141a107.327 107.327 0 0 1 59.887-.111l-26.067 99.82-30.04-86.788-3.78-12.92Z" fill="#FBBF24" fill-opacity=".1"/><path d="M46.05 67.914a107.328 107.328 0 0 1 48.41-35.257l38.548 97.675-76.31-54.18-10.647-8.238Z" fill="#F77" fill-opacity=".1"/><path d="M34.56 129.104c-6.057-.047-10.928-5.109-10.073-11.105a107.33 107.33 0 0 1 17.916-45.804l90.948 57.679-98.792-.77Z" fill="#E10E0E" fill-opacity=".1"/></svg>