<?xml version="1.0" encoding="utf-8"?><svg width="180" height="89" fill="none" xmlns="http://www.w3.org/2000/svg" viewBox="0 0 180 89"><path d="M164.728 40.118A90.053 90.053 0 0 1 180 87.986l-87.377-.412 62.73-41.158 9.375-6.298Z" fill="#13C296" fill-opacity=".1"/><path d="M164.728 40.118A90.053 90.053 0 0 1 180 87.986l-11.291.295a78.756 78.756 0 0 0-13.356-41.865l9.375-6.298Z" fill="#13C296"/><path d="M120.917 5.763A90.035 90.035 0 0 1 161.415 35.5L93.531 88.002l23.505-71.632 3.881-10.607Z" fill="#72DDC3" fill-opacity=".1"/><path d="M120.912 5.765a90.051 90.051 0 0 1 40.5 29.74l-8.959 6.877a78.757 78.757 0 0 0-35.42-26.01l3.879-10.607Z" fill="#72DDC3"/><path d="M64.698 3.909a90.049 90.049 0 0 1 50.245-.094l-21.87 83.75-25.204-72.816-3.171-10.84Z" fill="#FBBF24" fill-opacity=".1"/><path d="M64.698 3.909a90.049 90.049 0 0 1 50.245-.094l-3.131 10.852a78.754 78.754 0 0 0-43.943.082l-3.171-10.84Z" fill="#FBBF24"/><path d="M18.765 35.226A90.048 90.048 0 0 1 59.38 5.646l32.342 81.948-64.025-45.456-8.932-6.912Z" fill="#F77" fill-opacity=".1"/><path d="M18.765 35.226A90.048 90.048 0 0 1 59.38 5.646l4.183 10.517c-14.055 5.079-26.72 14.156-35.866 25.975l-8.932-6.912Z" fill="#F77"/><path d="M9.286 86.938c-5.082-.04-9.168-4.286-8.451-9.317a90.049 90.049 0 0 1 15.031-38.43l76.306 48.393-82.886-.646Z" fill="#E10E0E" fill-opacity=".1"/><path d="M0 86.866A90.048 90.048 0 0 1 15.866 39.19l9.297 6.415a78.755 78.755 0 0 0-13.877 41.695L0 86.866Z" fill="#E10E0E"/></svg>