<?xml version="1.0" encoding="utf-8"?><svg width="35" height="35" fill="none" xmlns="http://www.w3.org/2000/svg" viewBox="0 0 35 35"><path d="M19.856 24.131a4.173 4.173 0 0 1-2.981-1.237l-1.969-1.97a1.256 1.256 0 0 1 0-1.8 1.257 1.257 0 0 1 1.8 0l1.969 1.97c.675.675 1.687.675 2.362 0L31.95 10.18c.675-.675.675-1.687 0-2.362l-3.825-3.825c-.675-.675-1.688-.675-2.363 0L20.475 9.28a1.257 1.257 0 0 1-1.8 0 1.257 1.257 0 0 1 0-1.8l5.287-5.287c1.632-1.632 4.275-1.632 5.963 0l3.825 3.825c1.631 1.63 1.631 4.275 0 5.962L22.837 22.894c-.787.843-1.856 1.237-2.98 1.237Z" fill="#fff"/><path d="M9 34.987a4.172 4.172 0 0 1-2.981-1.237l-3.825-3.825c-1.632-1.575-1.632-4.219 0-5.906l10.912-10.913a4.214 4.214 0 0 1 2.981-1.237c1.125 0 2.194.45 2.982 1.237l1.968 1.969a1.256 1.256 0 0 1 0 1.8 1.256 1.256 0 0 1-1.8 0l-1.968-1.969c-.62-.619-1.744-.619-2.363 0L3.994 25.82c-.675.675-.675 1.687 0 2.362l3.825 3.825c.675.675 1.687.675 2.362 0l5.288-5.287a1.256 1.256 0 0 1 1.8 0 1.257 1.257 0 0 1 0 1.8l-5.288 5.287A4.357 4.357 0 0 1 9 34.987Z" fill="#fff"/></svg>