<?xml version="1.0" encoding="utf-8"?><svg width="180" height="43" fill="none" xmlns="http://www.w3.org/2000/svg" viewBox="0 0 180 43"><path opacity=".41" d="M22.074 6.463c0 .892.044 1.284.087.87.043-.413.043-1.153 0-1.632-.043-.478-.087-.13-.087.762Z" fill="#2271E6"/><path d="M17.45.392c-.78.108-2.04.391-2.82.653-.782.26-1.998.761-2.714 1.131-.716.348-1.888 1.045-2.605 1.523-.716.48-2.062 1.633-2.995 2.525-.933.914-2.127 2.285-2.648 3.068a30.118 30.118 0 0 0-1.823 3.264 28.33 28.33 0 0 0-1.367 3.7C.065 17.823 0 18.67 0 21.805c0 3.351.065 3.895.608 5.875.325 1.197 1.02 3.004 1.563 4.026.52 1.023 1.324 2.264 1.78 2.786l.802.936 3.191-3.178c-1.194-2.023-1.801-3.242-2.127-4.025-.304-.784-.695-2.155-.868-3.047-.174-.892-.26-1.763-.196-1.893.066-.196.586-.283 1.52-.283 1.194 0 1.454-.066 1.628-.435.108-.24.173-.631.108-.87-.065-.24-.325-.545-.586-.675-.282-.131-.977-.218-1.584-.175l-1.086.087a20.37 20.37 0 0 1 .456-3.373c.196-.783.76-2.306 1.28-3.373.522-1.066 1.195-2.241 1.477-2.61l.52-.654c1.563 1.72 2.084 2.09 2.41 2.068.26 0 .63-.218.803-.48.174-.282.326-.652.326-.826 0-.174-.478-.74-1.042-1.262l-1.02-.936c1.693-1.502 2.8-2.285 3.58-2.677a25.85 25.85 0 0 1 2.605-1.175c.652-.24 1.824-.522 2.605-.61l1.411-.151c-.26 2.437-.217 2.916.022 3.286.173.26.52.478.803.478.282 0 .607-.13.76-.26.151-.175.26-.915.26-1.85 0-1.502.022-1.59.5-1.59.26 0 1.063.11 1.779.24s2.084.544 3.039.914c.955.37 2.496 1.197 3.429 1.828.912.631 1.758 1.154 1.888 1.154.13 0 .934-.61 1.802-1.35a52.135 52.135 0 0 1 1.671-1.414c.065-.044-.282-.392-.738-.784a34.35 34.35 0 0 0-2.062-1.523 23.94 23.94 0 0 0-2.626-1.567c-.781-.391-2.192-.957-3.147-1.284C26.589.827 25.026.48 24.07.37c-.955-.13-2.518-.196-3.473-.196-.955.022-2.366.109-3.147.218Z" fill="#FBBF24"/><path d="m6 6.5 3.963 2.988 1.02.936c.564.522 1.042 1.088 1.042 1.262 0 .174-.152.544-.326.827-.174.26-.543.478-.803.478-.326.022-.847-.348-2.41-2.067l-.52.653c-.282.37-.955 1.545-1.476 2.611-.521 1.067-1.085 2.59-1.28 3.373a20.37 20.37 0 0 0-.457 3.373l1.086-.087c.607-.043 1.302.044 1.584.174.26.131.521.436.586.675.065.24 0 .631-.108.87-.174.37-.434.436-1.628.436-.934 0-1.454.087-1.52.283-.065.13.022 1 .196 1.893.173.892.564 2.263.868 3.046.326.784.933 2.003 2.127 4.026l-3.19 3.178-.804-.936c-.455-.523-1.259-1.763-1.78-2.786C1.629 30.683.933 28.877.609 27.68.065 25.7 0 25.156 0 21.805c0-3.134.065-3.982.478-5.55.282-1.022.89-2.676 1.367-3.699C3.202 9.74 4.137 8.436 6 6.5Z" fill="#F77"/><path opacity=".99" fill-rule="evenodd" clip-rule="evenodd" d="M102.318 13.231c.412 0 1.194.087 1.736.218.543.13 1.281.435 1.628.718.347.26.825.827 1.02 1.24.196.414.413 1.001.608 1.937h-1.367c-1.303 0-1.346-.022-1.628-.653-.174-.413-.543-.783-1.086-1.001a2.912 2.912 0 0 0-1.519-.218c-.369.066-.933.37-1.237.675-.304.305-.543.783-.543 1.088 0 .305.065.696.174.892.087.196.412.5.76.653.325.174 1.259.457 2.105.631.847.174 1.888.479 2.344.675.434.174 1.042.544 1.302.805.283.261.652.74.825 1.088.174.326.304.98.304 1.458 0 .479-.152 1.24-.347 1.697-.174.436-.543 1.045-.803 1.306-.261.283-.847.718-1.281.936a9.377 9.377 0 0 1-1.953.631c-.847.174-1.52.174-2.561-.044-.825-.152-1.715-.5-2.171-.826-.412-.305-.977-1.023-1.237-1.59-.282-.565-.5-1.218-.5-1.457 0-.392.152-.435 1.411-.435 1.281 0 1.411.043 1.52.5.065.261.325.697.608.958.303.326.868.544 1.562.63.803.11 1.281.044 1.802-.217.369-.196.803-.544.911-.783.109-.24.217-.675.217-.98 0-.326-.238-.74-.586-1.044-.412-.327-1.258-.631-2.561-.87-1.063-.218-2.344-.61-2.8-.871-.477-.261-1.042-.718-1.259-1.023-.238-.304-.477-1.022-.542-1.632-.065-.653 0-1.436.173-1.958.152-.48.543-1.154.847-1.502.304-.348.803-.762 1.15-.914.326-.174.955-.392 1.411-.5a9.97 9.97 0 0 1 1.563-.218Zm11.46 3.678c.608 0 1.498.152 1.954.348.434.174 1.085.587 1.41.914.348.326.76.849.934 1.197.173.326.304.74.304.914 0 .26-.283.326-1.238.326-1.063 0-1.345-.087-1.866-.61-.499-.478-.803-.587-1.585-.565-.759 0-1.107.152-1.562.61-.543.543-.587.696-.587 2.437 0 1.828.022 1.871.717 2.502.521.479.911.631 1.563.631.672 0 1.02-.152 1.519-.653.564-.565.803-.652 1.845-.652.803 0 1.194.087 1.194.282 0 .131-.217.653-.5 1.132-.26.457-.824 1.088-1.237 1.35-.412.282-1.107.608-1.519.717-.413.13-1.107.218-1.52.218-.412 0-1.128-.109-1.562-.218-.456-.13-1.259-.63-1.802-1.131-.629-.61-1.107-1.284-1.324-1.915-.173-.544-.304-1.523-.304-2.176 0-.653.152-1.633.326-2.177.195-.544.564-1.305.825-1.719.325-.457.911-.914 1.671-1.24.76-.326 1.606-.522 2.344-.522Zm10.462 0c.543 0 1.367.13 1.823.283.456.13 1.194.565 1.628.935.434.37 1.02 1.197 1.302 1.85.434.98.5 1.436.413 2.698-.065.85-.282 1.872-.5 2.285-.195.414-.672 1.088-1.063 1.48-.369.414-.977.892-1.324 1.088-.434.218-1.216.348-2.279.348-1.389.022-1.78-.065-2.648-.587a4.01 4.01 0 0 1-1.628-1.61c-.477-.827-.608-1.393-.673-2.786-.065-1.327 0-1.98.304-2.72.217-.544.651-1.262.955-1.61.304-.349 1.042-.871 1.628-1.154.629-.283 1.498-.5 2.062-.5Zm-1.91 3.46c-.13.24-.326.914-.391 1.501-.065.566-.022 1.436.109 1.959.173.653.434 1.044.955 1.349.369.24 1.02.435 1.411.435.412 0 .933-.196 1.302-.5.347-.327.694-.936.868-1.589.217-.805.239-1.306.065-2.046-.13-.544-.456-1.196-.716-1.458-.282-.282-.847-.543-1.259-.609-.434-.065-1.042.022-1.411.196-.347.152-.781.5-.911.762h-.022Zm14.477-3.46v2.502l-.868.174c-.478.087-1.172.392-1.519.697-.369.304-.738.914-.869 1.37-.108.436-.217 2.003-.217 6.137h-2.604V17.126h2.604v1.415l.391-.479c.195-.261.673-.631 1.02-.805.347-.196.977-.348 2.062-.348Zm5.318 0c.586 0 1.476.196 1.953.413.478.196 1.107.675 1.411 1.023.304.348.738 1.066.933 1.61.239.61.369 1.393.261 3.156h-3.581c-3.473 0-3.582.021-3.495.435.043.24.152.653.261.936.108.26.455.652.781.848.369.24.977.349 1.584.327.717-.022 1.107-.174 1.52-.566.434-.457.759-.566 1.671-.566 1.085 0 1.15.022 1.02.5-.087.262-.325.74-.542 1.089-.239.326-.825.827-1.346 1.11-.499.282-1.302.587-1.78.652-.477.087-1.389.044-2.019-.065-.759-.174-1.389-.479-1.91-.936-.434-.391-.998-1.11-1.237-1.588-.347-.675-.456-1.284-.456-2.72 0-1.589.087-2.002.565-2.938.304-.588.738-1.262.955-1.458.239-.196.846-.566 1.389-.805.564-.261 1.432-.457 2.062-.457Zm-1.368 2.459c-.26.152-.629.587-.803.979-.173.37-.325.783-.325.914 0 .13.911.218 2.279.218 2.214 0 2.279-.022 2.279-.48 0-.282-.174-.74-.369-1.022-.217-.305-.716-.675-1.107-.827-.369-.152-.716-.283-.76-.261-.021 0-.195.065-.369.13-.173.044-.542.218-.825.349Zm11.352-2.416c.716.044 1.671.283 2.127.522.478.218.977.631 1.151.914.173.262.369.784.629 1.785h-1.085c-.955 0-1.151-.065-1.563-.653-.412-.544-.651-.653-1.411-.653-.608-.022-1.063.13-1.324.37-.217.218-.369.588-.325.827.043.218.304.544.607.675.304.152 1.216.457 2.062.652.847.218 1.824.61 2.171.85.369.26.781.804.933 1.305.239.696.239 1.066.044 1.74-.152.48-.478 1.11-.717 1.372-.26.283-.781.674-1.128.87-.434.24-1.216.348-2.279.348-1.303 0-1.802-.087-2.496-.478-.478-.283-1.021-.718-1.216-.98-.195-.26-.434-.74-.629-1.675h1.302c1.02 0 1.302.065 1.302.326 0 .174.217.479.499.653.261.174.847.326 1.303.326.586 0 .976-.152 1.345-.544.304-.304.543-.63.543-.761 0-.13-.174-.392-.369-.61-.217-.217-1.129-.565-2.018-.761-.89-.218-1.954-.566-2.323-.805-.391-.24-.868-.784-1.042-1.197-.173-.414-.325-1.023-.325-1.35 0-.348.217-.957.477-1.37.282-.414.934-.98 1.476-1.263.782-.413 1.237-.5 2.279-.435Zm11.352 1.698c.499 0 1.172.108 1.519.239.326.13.825.435 1.107.696.282.261.695.87.912 1.35.217.478.412 1.37.412 1.958 0 .61-.195 1.48-.412 1.959-.217.478-.716 1.175-1.085 1.523-.652.61-.804.653-2.41.653-1.519 0-1.758-.066-2.3-.544a5.801 5.801 0 0 1-.977-1.415c-.239-.522-.413-1.393-.413-2.176 0-.957.131-1.567.5-2.285.325-.631.824-1.153 1.367-1.458a3.723 3.723 0 0 1 1.78-.5Zm-1.932 3.33a4.958 4.958 0 0 0-.065 1.784c.087.478.369 1.088.608 1.37.26.262.803.544 1.215.631.63.11.89.022 1.52-.544.738-.652.759-.696.759-2.284 0-1.459-.065-1.698-.542-2.198-.413-.436-.76-.566-1.433-.566-.564 0-1.042.152-1.346.435-.26.24-.586.849-.716 1.371Zm10.353-3.33c.456 0 .521.108.521.761 0 .675-.065.762-.542.762-.304 0-.803.24-1.129.522-.608.522-.608.566-.716 6.442l-1.411-.11-.109-8.16h.76c.63 0 .76.087.738.457 0 .435.022.435.673-.109.391-.304.933-.565 1.215-.565Zm4.472.065c.716.022 1.15.196 2.148 1.131l-.021-.478c0-.435.108-.5 1.519-.5l-.043 4.547c-.065 4.265-.087 4.592-.521 5.18-.261.326-.695.783-.977 1-.282.218-1.063.436-1.715.501-.846.109-1.432.044-2.018-.218-.434-.195-.999-.674-1.237-1.044-.239-.392-.434-.784-.434-.87 0-.11.347-.175.759-.175.543 0 .89.153 1.194.544.326.414.629.544 1.324.544.695 0 1.02-.13 1.519-.652.456-.48.63-.87.63-1.415 0-.413-.044-.762-.109-.762s-.369.196-.694.436c-.369.283-.934.457-1.476.457a3.034 3.034 0 0 1-1.606-.5c-.413-.284-.934-.784-1.151-1.154-.217-.348-.456-1.197-.521-1.85s-.021-1.61.109-2.11c.13-.523.477-1.241.781-1.611.304-.37.76-.762 1.042-.87.26-.11.933-.175 1.498-.131Zm-1.693 2.938c-.087.326-.087 1.131-.044 1.784.087.936.239 1.306.695 1.697.304.262.803.48 1.107.48.304 0 .738-.088.977-.218.238-.131.586-.544.781-.914.239-.5.325-1.11.282-1.959-.065-.936-.217-1.35-.629-1.784-.391-.436-.76-.566-1.346-.566-.521 0-.977.152-1.259.435-.239.24-.499.696-.564 1.045Zm-16.757 3.525c.109 0 .369.087.608.218.239.13.434.435.434.718.022.26-.108.609-.26.761-.152.153-.586.24-.934.218-.542-.065-.672-.174-.716-.718-.043-.435.044-.74.326-.914.195-.152.456-.283.542-.283Z" fill="#111928"/><path opacity=".99" d="M46.318 14.406v1.414h4.558v12.187h2.822V15.82h4.341v-2.829H46.32v1.415Zm42.76 1.306v1.414h-1.954v2.176h1.953c-.022 6.66.022 6.899.5 7.617.39.587.737.827 1.562 1.044.608.153 1.541.218 2.127.153l1.02-.11v-2.393c-1.736 0-1.996-.087-2.17-.435-.13-.24-.217-1.654-.217-3.156v-2.72h2.387v-2.176H91.9v-2.829h-2.822v1.415Zm-7.38 1.131c-.304.044-.869.13-1.26.174-.368.066-1.02.392-1.41.718-.39.37-.825 1.045-.999 1.589-.26.87-.238 1.045.174 2.002.369.805.651 1.11 1.367 1.436.521.24 1.672.588 2.562.762.998.218 1.736.5 1.91.718.152.218.26.544.26.718.022.174-.152.5-.369.697-.26.26-.76.391-1.54.391-1.021 0-1.173-.065-1.52-.652-.348-.61-.434-.653-1.845-.653s-1.454.021-1.324.5c.065.261.26.697.434.98.174.26.63.718.998 1 .391.305 1.194.653 1.802.806.586.13 1.52.195 2.062.152a6.557 6.557 0 0 0 1.888-.588 3.59 3.59 0 0 0 1.476-1.37c.282-.523.543-1.284.543-1.698 0-.435-.196-1.066-.478-1.502-.282-.413-.846-.913-1.259-1.131-.412-.218-1.497-.544-2.387-.74-.89-.196-1.758-.457-1.91-.61a1.062 1.062 0 0 1-.26-.74c0-.282.195-.587.433-.717.24-.13.782-.218 1.194-.218.413 0 .955.087 1.194.218.239.13.434.37.434.544 0 .26.282.326 1.302.326 1.086 0 1.303-.065 1.303-.37 0-.217-.174-.674-.391-1.044-.217-.37-.825-.87-1.346-1.11-.542-.261-1.324-.523-1.736-.566-.413-.043-.999-.065-1.302-.022Zm-18.797.479c-.369.218-.868.696-1.129 1.023l-.456.63-.021-1.849h-2.822v10.88h2.822c0-5.287.087-5.918.434-6.702.239-.5.738-1.11 1.129-1.349.39-.24 1.085-.435 1.519-.435h.825v-2.611c-1.26 0-1.932.195-2.301.413Zm3.603 4.113c.022 4.026.043 4.33.5 5.114.303.544.802.98 1.453 1.284.76.348 1.216.435 2.063.326a4.197 4.197 0 0 0 1.996-.783l.934-.675v1.306h2.821v-10.88H73.45v6.963c-.934.979-1.498 1.327-1.845 1.414-.348.087-.89.087-1.194-.021-.304-.11-.716-.544-.912-.958-.325-.631-.39-1.35-.39-4.07v-3.329h-2.605v4.309Z" fill="#111928"/><path d="M36.312 8.813c-2.214 1.872-4.732 4.004-5.622 4.723-.89.718-3.234 2.676-5.209 4.352-1.975 1.675-3.755 3.177-3.972 3.308-.326.239-.608.043-2.279-1.676-1.194-1.262-2.149-2.046-2.605-2.176-.542-.174-.868-.13-1.476.152-.434.218-.933.653-1.085.98a3.263 3.263 0 0 0-.304 1.262c0 .478.5 1.327 1.78 3.09a208.25 208.25 0 0 0 3.256 4.46c1.215 1.676 1.606 2.046 2.17 2.155.391.065.955.022 1.26-.087.303-.109 1.519-1.327 2.734-2.677a375.899 375.899 0 0 0 5.057-5.962c1.585-1.915 4.037-4.853 5.448-6.529a254.508 254.508 0 0 0 4.32-5.288c.976-1.218 1.758-2.35 1.758-2.502.022-.13-.152-.435-.37-.631-.216-.218-.498-.392-.629-.392-.13 0-2.04 1.545-4.232 3.417v.021Zm1.715 5.223-1.433 1.915c.673 2.655.825 4.026.825 5.332 0 1.545-.152 2.59-.564 4.134-.304 1.132-.955 2.851-1.455 3.808-.673 1.328-1.346 2.198-2.843 3.7-1.085 1.066-2.561 2.307-3.278 2.72-.694.414-2.213 1.088-3.364 1.48-1.454.5-2.648.74-4.015.827-1.52.109-2.431.022-4.124-.327-1.194-.239-2.865-.783-3.69-1.175-.847-.391-1.975-1.044-2.561-1.414-.565-.392-1.28-.697-1.628-.697-.413.022-1.02.414-1.997 1.306-1.02.936-1.367 1.371-1.259 1.61.109.196.825.827 1.628 1.437.825.587 2.257 1.48 3.212 1.937.955.478 2.366 1.022 3.148 1.218.78.196 1.758.457 2.17.588.456.13 2.366.174 4.667.13 3.56-.087 4.058-.152 5.643-.696.955-.327 2.518-1.001 3.473-1.48.955-.479 2.279-1.284 2.93-1.784a22.763 22.763 0 0 0 2.388-2.09c.672-.652 1.606-1.74 2.105-2.393.5-.653 1.259-1.937 1.714-2.83.435-.891 1.042-2.328 1.325-3.155.282-.848.607-2.459.738-3.59.152-1.197.173-3.112.086-4.57-.087-1.61-.325-3.134-.672-4.309-.283-.98-.695-2.154-.912-2.59-.195-.435-.478-.826-.586-.87-.13-.043-.89.784-1.671 1.828Z" fill="#13C296"/><path d="M2.17 31.706C1.628 30.683.933 28.877.607 27.68c0 0-.607-2.18-.607-3.18V21l5.838-.153c.608-.043 1.303.044 1.585.174.26.13.52.436.586.675.065.24 0 .631-.109.87-.173.37-.434.436-1.628.436-.933 0-1.454.087-1.519.283-.065.13.022 1 .195 1.893.174.892.565 2.263.869 3.046.325.784.933 2.002 2.127 4.026l-3.19 3.177-.804-.935c-.456-.523-1.259-1.763-1.78-2.786Z" fill="#E33629"/></svg>