<?xml version="1.0" encoding="utf-8"?><svg width="110" height="15" fill="none" xmlns="http://www.w3.org/2000/svg" viewBox="0 0 110 15"><path d="M4.424.718C5.91.718 6.747.682 7.665.682c.5 0 .72.14.772.808.103 1.227.235 1.705.235 2.234 0 .353-.213.463-.397.463-.272 0-.426-.227-.573-.5-.551-1.286-.757-1.653-1.529-1.653-.25 0-.39.096-.47.287-.08.205-.125.426-.125 2.138v1.03c0 1.653.03 3.086.096 3.527.125.845.948.816.948 1.33 0 .22-.191.404-.58.404-.434 0-1.133-.036-1.603-.036-.5 0-1.198.036-1.632.036-.404 0-.58-.183-.58-.404 0-.514.838-.492.963-1.33.058-.412.08-2.124.08-3.528V4.46c0-1.712-.051-1.933-.124-2.138-.081-.191-.228-.287-.47-.287-.773 0-.978.367-1.53 1.654-.146.272-.3.5-.573.5-.19 0-.397-.11-.397-.464 0-.529.125-1.007.236-2.234.044-.669.271-.808.764-.808.919 0 1.764.036 3.248.036Zm8.596 4.087c-.588 0-1.036.771-1.036 1.484v2.308c0 .58.117.823.529 1.132.242.183.661.257.661.595 0 .25-.132.426-.566.426-.426 0-.926-.036-1.653-.036-.5 0-.809.036-1.433.036-.36 0-.478-.183-.478-.404 0-.316.272-.478.412-.617.36-.382.404-.765.404-1.14V5.416c0-.427-.265-.603-.485-.699-.155-.095-.287-.19-.287-.389 0-.375.456-.441 1.014-.684.728-.33.926-.492 1.184-.492.271 0 .426.118.529.492.059.287.103.588.228.588.161 0 .867-1.124 2.05-1.124.72 0 1.404.426 1.404 1.595 0 .808-.588 1.631-1.316 1.631-.485 0-.507-.301-.617-.808-.096-.463-.287-.72-.544-.72Zm10.432.94v2.896c0 .287.125.61.449.61.154 0 .235-.051.338-.051.08 0 .154.11.154.279 0 .772-.683 1.36-1.536 1.36-.852 0-1.212-.441-1.41-.824-.03-.058-.082-.154-.177-.154-.044 0-.125.074-.213.162-.294.25-.926.838-2.066.838-1.8 0-2.447-1.198-2.447-2.727 0-1.058.162-2.396.162-2.778 0-.412-.103-.617-.309-.816-.235-.22-.536-.28-.536-.625 0-.272.198-.411.617-.455 1.308-.14 1.72-.309 2.065-.309.375 0 .47.265.47.5 0 .86-.272 1.698-.272 3.777 0 1.184.302 1.985 1.272 1.985.698 0 1.315-.463 1.315-1.669V5.628c0-.588-.066-.845-.345-1.095-.198-.206-.44-.287-.44-.618 0-.264.183-.396.572-.448 1.066-.11 1.794-.316 2.066-.316.338 0 .44.243.44.492 0 .486-.169.846-.169 2.102Zm4.795-2.653c.75 0 1.815.147 2.234.58.33.339.426.765.426 1.346 0 .404-.198.625-.448.625s-.434-.236-.654-.493c-.36-.426-.86-1-1.705-1-.596 0-.904.331-.904.743 0 .588.588.75 1.683 1.132 1.183.404 2.366.918 2.366 2.491 0 1.448-1.279 2.403-3.116 2.403-.823 0-2.073-.242-2.609-.845-.228-.235-.39-.735-.39-1.367 0-.397.162-.64.463-.64.17 0 .317.155.478.36.397.493.978 1.265 2.073 1.265.588 0 .911-.316.911-.779 0-.669-.83-.823-1.874-1.286-.89-.397-1.874-.838-1.874-2.198 0-1.433 1.367-2.337 2.94-2.337Zm6.674 1.75c-.029.3-.066 1.94-.066 2.704 0 .838.22 1.602 1.03 1.602.403 0 .683-.235.866-.39.089-.088.147-.132.228-.132.11 0 .22.081.22.353 0 .154-.05.353-.154.551-.279.574-1.007 1.33-2.278 1.33-1.448 0-2.08-.977-2.08-2.66 0-.669.096-2.234.096-3.08 0-.3-.081-.455-.324-.5-.455-.05-.735-.124-.735-.41 0-.258.067-.508.346-.647.485-.243.97-.559 1.323-.912.588-.61.669-1.315 1.124-1.315.265 0 .47.206.47.654 0 .309-.073 1.315-.073 1.382 0 .036.007.058.066.058.147 0 1.272-.066 1.463-.066.33 0 .529.096.529.5 0 .265-.147.632-.301.801a.422.422 0 0 1-.287.096c-.162 0-1.117-.06-1.338-.06-.044 0-.117.016-.125.14Z" fill="#13C296"/><path d="M41.685 1.755c-.713 0-1.352.39-1.352 1.087 0 .824 1.183 1.191 2.536 1.676 1.514.544 3.138 1.316 3.138 3.234 0 2.065-1.588 3.204-3.8 3.204-1.117 0-2.11-.345-2.66-.345-.28 0-.515.125-.75.125-.522 0-.47-.456-.647-1.603-.117-.815-.183-1.11-.183-1.337 0-.324.147-.515.345-.515.316 0 .58.47.977.92.61.69 1.61 1.322 2.837 1.322.838 0 1.411-.426 1.411-1.11 0-.955-1.146-1.279-2.366-1.712-1.44-.515-3.035-1.205-3.035-3.138 0-1.852 1.308-3.094 3.388-3.094 1.043 0 1.675.352 2.146.352.323 0 .514-.154.808-.154.58 0 .566.566.75 1.44.22 1.022.316 1.243.316 1.441 0 .301-.177.463-.397.463-.397 0-.551-.448-.933-.882-.904-1.073-1.801-1.374-2.529-1.374Zm4.967 5.394c0-2.153 1.425-4.042 3.821-4.042 1.47 0 2.602.772 2.602 1.881 0 .75-.53 1.257-1.323 1.257-.353 0-.456-.169-.551-.595-.154-.669-.419-1.448-1.14-1.448-.786 0-1.322.845-1.322 2 0 1.52.838 2.733 2.315 2.733 1.132 0 1.646-.683 1.933-1.036.08-.081.169-.17.257-.17.199 0 .243.229.243.478 0 1.184-1.184 2.668-3.205 2.668-2.197 0-3.63-1.595-3.63-3.726Zm10.883-2.896c-.64 0-1.22.552-1.22 2.014 0 .684.11 1.558.419 2.227.33.69.852 1.022 1.374 1.022.676 0 1.309-.493 1.309-1.786 0-.75-.199-1.676-.5-2.33-.375-.764-.882-1.147-1.382-1.147Zm-3.49 2.793c0-2.33 1.55-3.939 3.688-3.939 2.036 0 3.859 1.463 3.859 4.072 0 2.462-1.705 3.681-3.77 3.681-2.3 0-3.778-1.602-3.778-3.814Zm12.2-2.241c-.588 0-1.036.771-1.036 1.484v2.308c0 .58.118.823.53 1.132.242.183.66.257.66.595 0 .25-.132.426-.565.426-.426 0-.926-.036-1.654-.036-.5 0-.808.036-1.433.036-.36 0-.478-.183-.478-.404 0-.316.272-.478.412-.617.36-.382.404-.765.404-1.14V5.416c0-.427-.264-.603-.485-.699-.154-.095-.287-.19-.287-.389 0-.375.456-.441 1.015-.684.727-.33.926-.492 1.183-.492.272 0 .426.118.53.492.058.287.102.588.227.588.162 0 .867-1.124 2.05-1.124.72 0 1.404.426 1.404 1.595 0 .808-.588 1.631-1.315 1.631-.486 0-.507-.301-.618-.808-.095-.463-.286-.72-.544-.72Zm7.511.624c0-.683-.47-1.198-1.11-1.198-.874 0-1.477.89-1.477 1.801 0 .272.088.434.287.434.463 0 1.653-.199 2.11-.603a.557.557 0 0 0 .19-.434Zm1.374 1.323c-.845.478-2.594.662-3.498.713-.14.008-.19.037-.19.14 0 .544.528 1.55 1.88 1.55 1.044 0 1.669-.507 2.044-.992.095-.095.206-.161.294-.161.132 0 .22.132.22.419 0 .962-1.132 2.454-3.219 2.454-2.264 0-3.653-1.536-3.653-3.711 0-2.183 1.537-4.057 3.852-4.057 2.013 0 2.895 1.485 2.895 2.66 0 .5-.25.787-.624.985Zm4.634-3.66c.75 0 1.815.147 2.234.58.33.339.426.765.426 1.346 0 .404-.198.625-.448.625s-.434-.236-.654-.493c-.36-.426-.86-1-1.705-1-.596 0-.904.331-.904.743 0 .588.588.75 1.683 1.132 1.183.404 2.366.918 2.366 2.491 0 1.448-1.278 2.403-3.116 2.403-.823 0-2.072-.242-2.609-.845-.228-.235-.39-.735-.39-1.367 0-.397.162-.64.464-.64.169 0 .316.155.477.36.397.493.978 1.265 2.073 1.265.588 0 .911-.316.911-.779 0-.669-.83-.823-1.874-1.286-.89-.397-1.874-.838-1.874-2.198 0-1.433 1.367-2.337 2.94-2.337Zm6.609 6.431c0 .801-.625 1.279-1.323 1.279-.618 0-1.176-.375-1.176-1.14 0-.823.661-1.315 1.315-1.315.603 0 1.184.404 1.184 1.176Zm4.335-5.27c-.64 0-1.22.552-1.22 2.014 0 .684.11 1.558.418 2.227.331.69.853 1.022 1.375 1.022.676 0 1.308-.493 1.308-1.786 0-.75-.198-1.676-.5-2.33-.375-.764-.882-1.147-1.381-1.147Zm-3.491 2.793c0-2.33 1.55-3.939 3.689-3.939 2.036 0 3.858 1.463 3.858 4.072 0 2.462-1.705 3.681-3.77 3.681-2.3 0-3.777-1.602-3.777-3.814Zm12.2-2.241c-.587 0-1.035.771-1.035 1.484v2.308c0 .58.117.823.529 1.132.242.183.661.257.661.595 0 .25-.132.426-.566.426-.426 0-.926-.036-1.653-.036-.5 0-.809.036-1.433.036-.36 0-.478-.183-.478-.404 0-.316.272-.478.412-.617.36-.382.404-.765.404-1.14V5.416c0-.427-.265-.603-.485-.699-.155-.095-.287-.19-.287-.389 0-.375.456-.441 1.014-.684.728-.33.926-.492 1.183-.492.272 0 .427.118.53.492.058.287.103.588.228.588.161 0 .867-1.124 2.05-1.124.72 0 1.404.426 1.404 1.595 0 .808-.588 1.631-1.316 1.631-.485 0-.507-.301-.617-.808-.096-.463-.287-.72-.544-.72Zm6.094-1.69c1.015 0 1.948.293 2.506.293 1.103 0 1.257-.294 1.573-.294.169 0 .265.147.265.405 0 .257-.059.55-.147.764-.074.169-.221.485-.537.485-.338 0-.639-.11-.757-.11-.058 0-.073.03-.073.073 0 .11.316.434.316 1 0 1.624-1.36 2.565-3.087 2.565-.286 0-.595-.044-.801-.044-.375 0-.786.213-.786.602 0 .353.323.566.86.566.536 0 1.528-.22 2.44-.22 1.374 0 2.315.55 2.315 1.933 0 1.837-2.22 2.925-4.623 2.925-2.065 0-3.013-.699-3.013-1.786 0-.691.499-1.162.977-1.382.081-.052.11-.088.11-.125 0-.03-.022-.066-.095-.11a1.41 1.41 0 0 1-.691-1.213c0-.617.441-1.176 1.146-1.492.059-.03.103-.08.103-.117 0-.037-.029-.081-.088-.133-.514-.404-.926-1.065-.926-1.955 0-1.727 1.382-2.63 3.013-2.63Zm1.551 8.73c0-.492-.404-.757-1.117-.757-.515 0-1.198.074-1.507.177-.514.14-.852.44-.852.816 0 .58.624.815 1.47.815 1.176 0 2.006-.47 2.006-1.05Zm-2.535-6.261c0 1.058.551 1.499 1.117 1.499.602 0 1.087-.39 1.087-1.242 0-.603-.286-1.624-1.168-1.624-.618 0-1.036.544-1.036 1.367Z" fill="#111928"/></svg>