<?xml version="1.0" encoding="utf-8"?><svg width="36" height="36" fill="none" xmlns="http://www.w3.org/2000/svg" viewBox="0 0 36 36"><path d="M21.038 1.237c-9.226-1.63-18.113 4.5-19.744 13.725-.844 4.444.168 9 2.756 12.713 2.587 3.769 6.469 6.244 10.913 7.087 1.012.17 2.025.282 3.037.282 8.044 0 15.244-5.794 16.763-14.007 1.63-9.225-4.5-18.112-13.725-19.8Zm11.193 19.35c-.056.45-.169.9-.281 1.294L19.238 17.1V3.6c.45.056.9.112 1.293.169 7.875 1.406 13.107 8.943 11.7 16.818ZM16.706 3.6v13.162H3.6l.169-1.35C4.95 8.832 10.406 4.106 16.706 3.6ZM15.413 32.23c-3.825-.675-7.088-2.812-9.282-6.019-1.462-2.08-2.306-4.5-2.531-6.975h14.175l13.275 5.007c-2.756 5.737-9.113 9.225-15.638 7.987Z" fill="#fff"/></svg>