<?xml version="1.0" encoding="utf-8"?><svg width="659" height="319" fill="none" xmlns="http://www.w3.org/2000/svg" viewBox="0 0 659 319"><path fill="#fff" d="M1 0h658v319H1z"/><path d="M1 211v17c0 11.046 8.954 20 20 20" stroke="#E8E8E8" stroke-width="2"/><rect x="1" y="15" width="48" height="48" rx="24" fill="#E8E8E8"/><rect x="37" y="224" width="48" height="48" rx="24" fill="#E8E8E8"/><rect x="65" y="22" width="112" height="15" rx="7.5" fill="#E8E8E8"/><rect x="1" y="82" width="15" height="15" rx="7.5" fill="#E8E8E8"/><rect x="18" y="82" width="15" height="15" rx="7.5" fill="#E8E8E8"/><rect x="35" y="82" width="15" height="15" rx="7.5" fill="#E8E8E8"/><rect x="52" y="82" width="15" height="15" rx="7.5" fill="#E8E8E8"/><rect x="69" y="82" width="15" height="15" rx="7.5" fill="#E8E8E8"/><rect x="547" y="14" width="112" height="15" rx="7.5" fill="#E8E8E8"/><rect x="1" y="111" width="302" height="15" rx="7.5" fill="#E8E8E8"/><rect x="100" y="224" width="81" height="15" rx="7.5" fill="#E8E8E8"/><rect x="65" y="42" width="76" height="10" rx="5" fill="#F5F5F5"/><rect x="1" y="144" width="629" height="10" rx="5" fill="#F5F5F5"/><rect x="100" y="247" width="82" height="10" rx="5" fill="#F5F5F5"/><rect x="1" y="164" width="454" height="10" rx="5" fill="#F5F5F5"/><rect x="100" y="274" width="454" height="10" rx="5" fill="#F5F5F5"/><rect x="100" y="292" width="260" height="10" rx="5" fill="#F5F5F5"/><rect x="1" y="182" width="228" height="10" rx="5" fill="#F5F5F5"/></svg>