<?xml version="1.0" encoding="utf-8"?><svg width="770" height="275" fill="none" xmlns="http://www.w3.org/2000/svg" viewBox="0 0 770 275"><path fill="#fff" d="M0 0h770v275H0z"/><path d="M64 164v17c0 11.046 8.954 20 20 20" stroke="#E8E8E8" stroke-width="2"/><rect width="48" height="48" rx="24" fill="#E8E8E8"/><rect x="100" y="177" width="48" height="48" rx="24" fill="#E8E8E8"/><rect x="64" y="7" width="112" height="15" rx="7.5" fill="#E8E8E8"/><rect x="190" y="7" width="15" height="15" rx="7.5" fill="#E8E8E8"/><rect x="207" y="7" width="15" height="15" rx="7.5" fill="#E8E8E8"/><rect x="224" y="7" width="15" height="15" rx="7.5" fill="#E8E8E8"/><rect x="241" y="7" width="15" height="15" rx="7.5" fill="#E8E8E8"/><rect x="258" y="7" width="15" height="15" rx="7.5" fill="#E8E8E8"/><rect x="658" y="7" width="112" height="15" rx="7.5" fill="#E8E8E8"/><rect x="64" y="64" width="302" height="15" rx="7.5" fill="#E8E8E8"/><rect x="163" y="177" width="81" height="15" rx="7.5" fill="#E8E8E8"/><rect x="64" y="27" width="76" height="10" rx="5" fill="#F5F5F5"/><rect x="64" y="97" width="629" height="10" rx="5" fill="#F5F5F5"/><rect x="163" y="200" width="82" height="10" rx="5" fill="#F5F5F5"/><rect x="64" y="117" width="454" height="10" rx="5" fill="#F5F5F5"/><rect x="163" y="227" width="454" height="10" rx="5" fill="#F5F5F5"/><rect x="163" y="245" width="260" height="10" rx="5" fill="#F5F5F5"/><rect x="64" y="135" width="228" height="10" rx="5" fill="#F5F5F5"/></svg>