<?xml version="1.0" encoding="utf-8"?><svg width="451" height="277" fill="none" xmlns="http://www.w3.org/2000/svg" viewBox="0 0 451 277"><rect x="25.5" y="15" width="60" height="60" rx="30" fill="#E8E8E8"/><rect x="100.5" y="27" width="110" height="18" rx="9" fill="#E8E8E8"/><rect x="100.5" y="51" width="85" height="12" rx="6" fill="#F5F5F5"/><rect x="25" y="141" width="208" height="18" rx="9" fill="#E8E8E8"/><rect x="25" y="165" width="397" height="12" rx="6" fill="#F5F5F5"/><rect x="25" y="183" width="397" height="12" rx="6" fill="#F5F5F5"/><rect x="25" y="201" width="397" height="12" rx="6" fill="#F5F5F5"/><rect x="25" y="219" width="397" height="12" rx="6" fill="#F5F5F5"/><rect x="302.5" y="244" width="120" height="18" rx="9" fill="#E8E8E8"/><rect x="25.5" y="92" width="39" height="18" rx="9" fill="#E8E8E8"/><rect x="74.5" y="92" width="18" height="18" rx="9" fill="#E8E8E8"/><rect x="96.5" y="92" width="18" height="18" rx="9" fill="#E8E8E8"/><rect x="118.5" y="92" width="18" height="18" rx="9" fill="#E8E8E8"/><rect x="140.5" y="92" width="18" height="18" rx="9" fill="#E8E8E8"/><rect x="162.5" y="92" width="18" height="18" rx="9" fill="#E8E8E8"/></svg>