<?xml version="1.0" encoding="utf-8"?><svg width="870" height="240" fill="none" xmlns="http://www.w3.org/2000/svg" viewBox="0 0 870 240"><rect width="870" height="240" rx="12" fill="#fff"/><rect x="30" y="16" width="60" height="60" rx="30" fill="#E8E8E8"/><rect x="105" y="28" width="110" height="18" rx="9" fill="#E8E8E8"/><rect x="105" y="52" width="85" height="12" rx="6" fill="#F5F5F5"/><rect x="685" y="16" width="39" height="18" rx="9" fill="#E8E8E8"/><rect x="734" y="16" width="18" height="18" rx="9" fill="#E8E8E8"/><rect x="756" y="16" width="18" height="18" rx="9" fill="#E8E8E8"/><rect x="778" y="16" width="18" height="18" rx="9" fill="#E8E8E8"/><rect x="800" y="16" width="18" height="18" rx="9" fill="#E8E8E8"/><rect x="822" y="16" width="18" height="18" rx="9" fill="#E8E8E8"/><rect x="30" y="92" width="302" height="18" rx="9" fill="#E8E8E8"/><rect x="30" y="116" width="790" height="12" rx="6" fill="#F5F5F5"/><rect x="30" y="134" width="790" height="12" rx="6" fill="#F5F5F5"/><rect x="30" y="152" width="790" height="12" rx="6" fill="#F5F5F5"/><rect x="30" y="170" width="442" height="12" rx="6" fill="#F5F5F5"/><rect x="720" y="198" width="120" height="18" rx="9" fill="#E8E8E8"/></svg>