<?xml version="1.0" encoding="utf-8"?><svg width="17" height="16" fill="none" xmlns="http://www.w3.org/2000/svg" viewBox="0 0 17 16"><g clip-path="url(#cya)"><path d="M4.525 15.55c-.225 0-.45-.075-.625-.2-.35-.25-.55-.7-.475-1.125l.65-4.025-2.8-2.875c-.3-.3-.4-.75-.275-1.175.125-.4.475-.7.875-.75l3.875-.625L7.5 1.1c.2-.4.575-.65 1-.65.425 0 .825.25 1 .65l1.75 3.65 3.85.6c.4.075.75.35.875.75.15.425.025.875-.275 1.175l-2.775 2.9.65 4.05c.075.45-.1.875-.475 1.125-.35.25-.775.275-1.15.075L8.5 13.55l-3.45 1.875c-.15.1-.35.125-.525.125ZM2.075 6.5v.05L5 9.55c.175.175.25.45.225.7l-.675 4.175v.025l3.6-1.95a.796.796 0 0 1 .75 0l3.6 1.95v-.025l-.675-4.2c-.05-.25.05-.5.225-.7l2.925-3c.025-.025 0-.05 0-.05L10.95 5.85c-.25-.05-.475-.2-.575-.45L8.5 1.6 6.7 5.425c-.1.225-.325.4-.575.45l-4.05.625Z" fill="#F59E0B"/></g><defs><clipPath id="cya"><path fill="#fff" transform="translate(.5)" d="M0 0h16v16H0z"/></clipPath></defs></svg>