<?xml version="1.0" encoding="utf-8"?><svg width="36" height="36" fill="none" xmlns="http://www.w3.org/2000/svg" viewBox="0 0 36 36"><path d="M25.425 18.337c-.281 0-.562 0-.787.057-1.632-1.856-3.6-3.206-5.794-3.881 2.194-1.238 3.712-3.6 3.712-6.3 0-3.994-3.262-7.2-7.2-7.2-3.993 0-7.2 3.262-7.2 7.2 0 2.7 1.52 5.062 3.713 6.3-2.194.675-4.219 2.025-5.85 3.937-2.363 2.813-3.713 6.75-3.825 11.025 0 .506.281.956.675 1.181 1.519.732 6.806 3.15 12.487 3.15 1.632 0 3.32-.168 5.007-.506 1.406 1.069 3.15 1.744 5.062 1.744 4.613 0 8.325-3.769 8.325-8.325 0-4.556-3.712-8.382-8.325-8.382ZM15.356 3.544a4.657 4.657 0 0 1 4.67 4.668 4.657 4.657 0 0 1-4.67 4.67 4.657 4.657 0 0 1-4.668-4.67 4.657 4.657 0 0 1 4.668-4.668Zm-10.575 25.2c.225-3.375 1.35-6.413 3.207-8.663 1.968-2.306 4.612-3.6 7.425-3.6 2.418 0 4.668.956 6.525 2.644-2.813 1.35-4.782 4.219-4.782 7.538 0 1.63.45 3.093 1.294 4.387-1.012.113-2.025.225-2.981.225-4.5 0-8.775-1.631-10.688-2.531Zm20.644 3.769a5.786 5.786 0 0 1-5.794-5.794 5.786 5.786 0 0 1 5.794-5.794 5.785 5.785 0 0 1 5.794 5.794 5.786 5.786 0 0 1-5.794 5.794Z" fill="#fff"/><path d="m27.338 24.075-2.813 2.756-.45-.45c-.45-.506-1.294-.562-1.8-.056-.506.45-.562 1.294-.056 1.8l1.294 1.406c.225.225.562.394.9.394h.056c.337 0 .675-.113.9-.338l3.712-3.656a1.256 1.256 0 0 0 0-1.8c-.45-.562-1.237-.562-1.743-.056Z" fill="#fff"/></svg>