<?xml version="1.0" encoding="utf-8"?><svg width="48" height="48" fill="none" xmlns="http://www.w3.org/2000/svg" viewBox="0 0 48 48"><path d="M41.483 26.43v-5.49a3.645 3.645 0 0 0-3.638-3.638H35.79l2.505-2.497a.788.788 0 0 0 .218-.532.752.752 0 0 0-.218-.533l-9.698-9.697a.75.75 0 0 0-1.065 0L25.726 5.85l-7.058-3.525a.81.81 0 0 0-.577-.037.795.795 0 0 0-.435.375l-7.298 14.64h-4.5A3.645 3.645 0 0 0 2.25 20.94v21.172a3.645 3.645 0 0 0 3.638 3.638h31.957a3.645 3.645 0 0 0 3.638-3.638v-6.75a2.79 2.79 0 0 0 2.692-2.775v-3.375a2.783 2.783 0 0 0-2.692-2.782ZM28.065 5.633l8.64 8.617-3 3h-2.76l.75-.705a.75.75 0 0 0 0-1.065 1.778 1.778 0 0 1 0-2.52.75.75 0 0 0 0-1.065l-1.32-1.215a.75.75 0 0 0-1.058 0 1.77 1.77 0 0 1-2.512 0 .749.749 0 0 0-1.065 0l-6.615 6.622h-2.73l11.67-11.67ZM21.323 17.25a2.677 2.677 0 0 1 3.75 0l.06.075H21.24l.083-.075Zm5.647.075a3.983 3.983 0 0 0-.802-1.14A4.17 4.17 0 0 0 23.564 15l2.767-2.768a3.3 3.3 0 0 0 3.458 0l.338.33a3.255 3.255 0 0 0-.495 1.688c0 .611.174 1.21.502 1.725L28.83 17.28l-1.86.045Zm-9.502-3.217 1.65-3.316c.57.134 1.165.114 1.725-.06l-3.375 3.376Zm1.2-10.103 5.94 2.963-1.44 1.44-.668-.345a.75.75 0 0 0-1.012.337 1.77 1.77 0 0 1-2.378.795.75.75 0 0 0-1.005.33l-3.9 7.777h-2.168l6.63-13.297ZM37.844 44.25H5.888a2.145 2.145 0 0 1-2.138-2.138V20.94a2.145 2.145 0 0 1 2.138-2.138h31.957a2.145 2.145 0 0 1 2.138 2.138v5.482h-5.595a2.25 2.25 0 0 0-2.25 2.25v4.433a2.25 2.25 0 0 0 2.25 2.25h5.595v6.75a2.145 2.145 0 0 1-2.138 2.145Zm-4.207-14.198h.682a.84.84 0 0 1 0 1.673h-.682v-1.673Zm9 2.52a1.29 1.29 0 0 1-1.283 1.283h-6.967a.75.75 0 0 1-.75-.63h.66a2.34 2.34 0 0 0 0-4.673h-.66a.75.75 0 0 1 .75-.63h7.005a1.282 1.282 0 0 1 1.282 1.276l-.037 3.374Z" fill="#111928"/></svg>