<?xml version="1.0" encoding="utf-8"?><svg width="14" height="14" fill="none" xmlns="http://www.w3.org/2000/svg" viewBox="0 0 14 14"><path d="M13.015.731a.254.254 0 0 1 .182.073.252.252 0 0 1 .05.279.252.252 0 0 1-.057.08l-.007.007-.006.007L7.354 7l5.823 5.823.006.007.007.006a.25.25 0 1 1-.354.353l-.006-.007-.006-.005-5.47-5.47L7 7.353l-5.81 5.81a.25.25 0 0 1-.357-.349L6.647 7 .824 1.177a.25.25 0 0 1 0-.353.251.251 0 0 1 .353 0l5.47 5.47.353.353 5.83-5.83.006-.007a.252.252 0 0 1 .179-.079Z" fill="#111928" stroke="url(#ala)"/><defs><linearGradient id="ala" x1="7.01" y1=".231" x2="7.01" y2="13.769" gradientUnits="userSpaceOnUse"><stop/><stop offset="1" stop-color="#666"/></linearGradient></defs></svg>