<?xml version="1.0" encoding="utf-8"?><svg width="48" height="48" fill="none" xmlns="http://www.w3.org/2000/svg" viewBox="0 0 48 48"><path d="M24 39c8.284 0 15-6.716 15-15 0-8.284-6.716-15-15-15-8.284 0-15 6.716-15 15 0 8.284 6.716 15 15 15Z" stroke="#111928" stroke-width="2" stroke-miterlimit="10" stroke-linecap="round" stroke-linejoin="round"/><path d="M24 45c11.598 0 21-9.402 21-21S35.598 3 24 3 3 12.402 3 24s9.402 21 21 21ZM24 3v6M9.15 9.15l4.2 4.2M3 24h6M9.15 38.85l4.2-4.2M24 45v-6M38.85 38.85l-4.2-4.2M45 24h-6M38.85 9.15l-4.2 4.2" stroke="#111928" stroke-width="2" stroke-miterlimit="10" stroke-linecap="round" stroke-linejoin="round"/><path d="M24 16.5 18 24l6 7.5 6-7.5-6-7.5Z" stroke="#111928" stroke-width="2" stroke-miterlimit="10" stroke-linecap="round" stroke-linejoin="round"/></svg>