<?xml version="1.0" encoding="utf-8"?><svg width="12" height="12" xmlns="http://www.w3.org/2000/svg" viewBox="0 0 12 12"><path d="M10.575 11.681H8.118c-.6 0-1.106-.487-1.106-1.106V8.588a.256.256 0 0 0-.262-.263h-1.5a.256.256 0 0 0-.263.263v1.987c0 .619-.487 1.106-1.106 1.106H1.425c-.6 0-1.107-.487-1.107-1.106V4.256c0-.319.15-.6.413-.769L5.512.47a.883.883 0 0 1 .956 0l4.782 3.037c.262.169.412.45.412.769v6.3c.019.6-.487 1.106-1.087 1.106Zm-5.325-4.2h1.5c.618 0 1.106.488 1.106 1.107v1.987c0 .15.112.263.262.263h2.457c.15 0 .262-.113.262-.263V4.256c0-.019-.019-.037-.019-.056l-4.8-3.019c-.018-.018-.037-.018-.056 0L1.2 4.2c-.02.019-.038.037-.038.056v6.319c0 .15.113.263.263.263H3.88c.15 0 .262-.113.262-.263V8.588c0-.6.488-1.107 1.107-1.107Z"/></svg>