<?xml version="1.0" encoding="utf-8"?><svg width="36" height="36" fill="none" xmlns="http://www.w3.org/2000/svg" viewBox="0 0 36 36"><path d="m30.094 21.825-.45-.225.562-.337c1.125-.675 1.744-1.857 1.744-3.207 0-1.293-.731-2.475-1.856-3.15l-1.182-.675 1.294-.787c1.125-.675 1.744-1.856 1.744-3.206 0-1.294-.731-2.475-1.856-3.094L19.912 1.463c-1.125-.62-2.53-.62-3.6 0L5.85 7.538a3.658 3.658 0 0 0-1.8 3.15c0 1.293.675 2.53 1.8 3.15l1.237.73-1.237.732a3.658 3.658 0 0 0-1.8 3.15c0 1.294.675 2.531 1.8 3.15l.506.281-.506.282c-1.125.675-1.856 1.856-1.856 3.15 0 1.35.675 2.53 1.8 3.15l10.35 6.018a3.54 3.54 0 0 0 1.856.507c.675 0 1.35-.17 1.912-.563l10.35-6.3c1.125-.675 1.744-1.856 1.744-3.206-.056-1.294-.731-2.475-1.912-3.094ZM6.524 10.688c0-.17.057-.675.563-.957L17.55 3.656a1.022 1.022 0 0 1 1.125 0l10.237 5.682c.507.28.563.787.563.956 0 .169-.056.675-.563 1.012L18.62 17.663c-.338.225-.788.225-1.182 0l-10.35-6.02a1.099 1.099 0 0 1-.562-.955Zm.563 6.806 2.475-1.463 6.582 3.825a3.54 3.54 0 0 0 1.856.507c.675 0 1.35-.17 1.912-.563l6.525-3.994 2.42 1.35a1.1 1.1 0 0 1 .562.957c0 .168-.057.675-.563 1.012l-10.237 6.3c-.338.225-.788.225-1.182 0l-10.35-6.019a1.099 1.099 0 0 1-.562-.956c0-.169.056-.675.562-.956Zm21.825 8.494L18.62 32.344c-.338.225-.788.225-1.182 0l-10.35-6.019a1.099 1.099 0 0 1-.562-.956c0-.169.056-.675.562-.956L8.831 23.4l7.369 4.275a3.54 3.54 0 0 0 1.856.506c.675 0 1.35-.168 1.913-.562l7.256-4.444 1.687.9c.507.281.563.788.563.956 0 .17-.056.675-.563.957Z" fill="#fff"/></svg>