<?xml version="1.0" encoding="utf-8"?><svg width="18" height="18" fill="none" xmlns="http://www.w3.org/2000/svg" viewBox="0 0 18 18"><g clip-path="url(#bqa)"><path d="M9 .36a8.64 8.64 0 1 0 0 17.28A8.64 8.64 0 0 0 9 .36ZM6.885 12.58h-1.75v-5.63h1.75v5.63Zm-.886-6.322c-.552 0-.91-.391-.91-.875 0-.494.368-.874.933-.874.564 0 .91.38.92.874 0 .484-.356.875-.943.875Zm7.276 6.322h-1.75v-3.12c0-.727-.254-1.22-.886-1.22-.483 0-.77.334-.898.655-.046.115-.058.277-.058.438v3.246h-1.75V8.746c0-.703-.023-1.29-.046-1.796h1.52l.08.782h.035c.23-.367.795-.91 1.739-.91 1.15 0 2.014.772 2.014 2.43v3.329Z" fill="#637381"/></g><defs><clipPath id="bqa"><path fill="#fff" d="M0 0h18v18H0z"/></clipPath></defs></svg>