<?xml version="1.0" encoding="utf-8"?><svg width="171" height="40" fill="none" xmlns="http://www.w3.org/2000/svg" viewBox="0 0 171 40"><path opacity=".41" d="M21.122 5.932c0 .842.04 1.211.081.821.041-.39.041-1.088 0-1.54-.04-.45-.081-.122-.081.72Z" fill="#111928"/><path d="M16.76.205c-.736.103-1.924.37-2.66.616-.738.246-1.884.718-2.56 1.067-.675.329-1.78.986-2.456 1.437-.676.452-1.945 1.54-2.826 2.381-.88.862-2.006 2.155-2.497 2.894a28.404 28.404 0 0 0-1.72 3.08 26.72 26.72 0 0 0-1.29 3.489c-.389 1.477-.45 2.278-.45 5.234 0 3.16.061 3.674.573 5.542.307 1.129.962 2.832 1.474 3.797.491.965 1.249 2.135 1.679 2.627l.757.883 3.01-2.997c-1.126-1.909-1.7-3.058-2.007-3.797-.286-.739-.655-2.032-.818-2.874-.164-.841-.246-1.662-.185-1.785.062-.185.553-.267 1.433-.267 1.126 0 1.372-.062 1.536-.41.102-.227.164-.596.102-.822-.061-.226-.307-.513-.553-.636-.266-.123-.92-.205-1.494-.164l-1.024.082c.082-1.437.266-2.443.43-3.182.185-.739.717-2.175 1.208-3.181.492-1.006 1.126-2.114 1.392-2.463l.492-.616c1.474 1.621 1.965 1.97 2.272 1.95.246 0 .594-.206.758-.452.163-.267.307-.616.307-.78 0-.164-.45-.698-.983-1.19l-.962-.883c1.597-1.416 2.64-2.155 3.378-2.525.737-.39 1.842-.882 2.457-1.108.614-.226 1.72-.493 2.456-.575l1.331-.143c-.246 2.299-.205 2.75.02 3.099.164.246.492.452.758.452s.573-.124.716-.247c.144-.164.246-.862.246-1.744 0-1.417.02-1.499.471-1.499.246 0 1.003.103 1.679.226.675.123 1.965.513 2.866.862.9.349 2.354 1.129 3.235 1.724.86.595 1.658 1.088 1.78 1.088.124 0 .881-.575 1.7-1.272a49.205 49.205 0 0 1 1.577-1.335c.06-.04-.267-.37-.697-.739-.45-.37-1.31-1.005-1.944-1.436a22.575 22.575 0 0 0-2.478-1.478c-.737-.37-2.067-.903-2.968-1.211-.901-.308-2.375-.637-3.276-.74C22.105.063 20.63 0 19.73 0c-.901.02-2.232.103-2.97.205Z" fill="#111928"/><path d="m5.96 5.967 3.738 2.818.962.883c.532.492.983 1.026.983 1.19 0 .164-.144.513-.308.78-.163.246-.511.452-.757.452-.307.02-.798-.329-2.272-1.95l-.492.615c-.266.35-.9 1.458-1.392 2.464-.491 1.005-1.024 2.442-1.208 3.181a19.214 19.214 0 0 0-.43 3.182l1.024-.082c.573-.041 1.228.04 1.494.164.246.123.492.41.553.636.062.226 0 .595-.102.821-.164.349-.41.41-1.536.41-.88 0-1.371.083-1.433.268-.061.123.02.944.184 1.785.164.842.533 2.135.82 2.874.306.739.88 1.888 2.006 3.797l-3.01 2.997-.757-.883c-.43-.492-1.188-1.662-1.679-2.627-.512-.965-1.167-2.668-1.474-3.797-.512-1.868-.74-3.855-.845-6.288.105-1.905.333-3.01.722-4.488a26.72 26.72 0 0 1 1.29-3.49c1.28-2.656 2.161-3.887 3.92-5.712ZM34.551 8.149c-2.088 1.765-4.463 3.777-5.302 4.454-.84.677-3.05 2.525-4.913 4.105-1.864 1.58-3.542 2.997-3.747 3.12-.307.226-.573.041-2.15-1.58-1.126-1.19-2.026-1.93-2.456-2.053-.512-.164-.82-.123-1.393.144-.409.205-.88.616-1.023.923a3.077 3.077 0 0 0-.287 1.19c0 .452.471 1.253 1.679 2.916.9 1.272 2.293 3.181 3.07 4.207 1.147 1.58 1.516 1.93 2.048 2.033.369.061.9.02 1.188-.083.286-.102 1.433-1.252 2.58-2.524a355.406 355.406 0 0 0 4.77-5.624c1.494-1.807 3.807-4.578 5.138-6.158 1.33-1.58 3.153-3.818 4.074-4.988.921-1.15 1.658-2.217 1.658-2.36.02-.124-.143-.411-.348-.596-.204-.205-.47-.37-.593-.37s-1.925 1.458-3.993 3.223v.02Zm1.618 4.926-1.351 1.806c.634 2.505.778 3.798.778 5.03 0 1.457-.144 2.442-.533 3.9-.286 1.067-.9 2.688-1.372 3.591-.634 1.252-1.269 2.073-2.681 3.49-1.024 1.005-2.416 2.175-3.092 2.565-.655.39-2.088 1.027-3.173 1.396-1.372.472-2.498.698-3.788.78-1.433.103-2.293.02-3.89-.308-1.125-.226-2.702-.739-3.48-1.108-.798-.37-1.863-.985-2.416-1.334-.532-.37-1.207-.657-1.535-.657-.389.02-.962.39-1.884 1.231-.962.883-1.29 1.294-1.187 1.52.102.184.778.78 1.536 1.354.777.554 2.129 1.396 3.03 1.827.9.451 2.231.965 2.968 1.15.737.184 1.658.43 2.047.553.43.124 2.232.165 4.402.124 3.358-.082 3.828-.144 5.323-.657.9-.308 2.375-.944 3.276-1.396.9-.452 2.15-1.211 2.763-1.683a21.48 21.48 0 0 0 2.252-1.97c.635-.616 1.515-1.643 1.986-2.259.471-.615 1.188-1.826 1.618-2.668.41-.841.982-2.196 1.248-2.976.267-.8.574-2.32.697-3.387.143-1.129.163-2.935.081-4.31-.081-1.52-.307-2.956-.634-4.064-.266-.924-.655-2.033-.86-2.443-.184-.41-.45-.78-.553-.821-.123-.041-.84.739-1.576 1.724Z" fill="#111928"/><path d="M2.348 29.742C1.087 27.266.653 25.02.346 23.89c-.487-2.434-.318-4.233-.318-4.233l5.78-.157c.573-.041 1.228.041 1.494.164.246.123.492.41.553.636.061.226 0 .596-.102.822-.164.348-.41.41-1.536.41-.88 0-1.371.082-1.433.267-.061.123.02.944.184 1.786.164.841.533 2.134.82 2.873.306.74.88 1.889 2.006 3.798l-3.01 2.996-.757-.882c-.43-.493-1.188-1.663-1.68-2.628Z" fill="#111928"/><path opacity=".99" fill-rule="evenodd" clip-rule="evenodd" d="M96.81 12.315c.389 0 1.126.083 1.638.206.512.123 1.208.41 1.535.677.328.246.778.78.962 1.17.185.39.389.944.574 1.827h-1.29c-1.229 0-1.27-.02-1.536-.616-.163-.39-.511-.739-1.023-.944a2.748 2.748 0 0 0-1.433-.205c-.348.061-.88.348-1.167.636-.287.287-.512.739-.512 1.026 0 .288.061.657.164.842.082.184.389.472.716.615.307.165 1.188.432 1.986.596.798.164 1.781.451 2.211.636.41.164.983.513 1.228.76.267.246.615.697.778 1.026.164.308.287.924.287 1.375 0 .452-.143 1.17-.328 1.601-.163.41-.511.985-.757 1.232-.246.267-.798.677-1.208.882-.43.206-1.27.493-1.843.596-.798.164-1.433.164-2.415-.041-.778-.144-1.618-.473-2.047-.78-.39-.288-.922-.965-1.168-1.499-.266-.534-.47-1.15-.47-1.375 0-.37.143-.41 1.33-.41 1.208 0 1.331.04 1.433.471.062.247.308.657.574.904.286.308.819.513 1.474.595.757.103 1.208.04 1.699-.205.348-.185.758-.514.86-.74.102-.225.205-.636.205-.923 0-.308-.226-.698-.553-.985-.39-.308-1.188-.596-2.416-.821-1.003-.206-2.211-.575-2.641-.821-.45-.247-.983-.678-1.187-.965-.226-.287-.45-.965-.512-1.54-.062-.615 0-1.354.164-1.847.143-.451.511-1.088.798-1.416.287-.329.757-.719 1.085-.862.307-.164.9-.37 1.33-.472a9.432 9.432 0 0 1 1.475-.206Zm10.809 3.47c.574 0 1.413.143 1.843.328.409.164 1.024.554 1.331.862.327.308.716.8.88 1.129.164.308.287.698.287.862 0 .246-.266.308-1.167.308-1.003 0-1.27-.082-1.761-.575-.471-.452-.757-.554-1.494-.534-.717 0-1.045.144-1.474.575-.512.513-.553.657-.553 2.299 0 1.724.02 1.765.675 2.36.492.452.86.596 1.474.596.635 0 .963-.144 1.434-.616.532-.534.757-.616 1.74-.616.757 0 1.126.082 1.126.267 0 .123-.205.616-.471 1.067-.246.431-.778 1.027-1.167 1.273-.389.267-1.044.575-1.433.677-.389.123-1.044.206-1.433.206s-1.065-.103-1.474-.206c-.43-.123-1.188-.595-1.7-1.067-.593-.575-1.044-1.211-1.248-1.806-.164-.514-.287-1.437-.287-2.053 0-.616.143-1.54.307-2.052a9.884 9.884 0 0 1 .778-1.622c.307-.431.86-.862 1.576-1.17.717-.308 1.515-.493 2.211-.493Zm9.868 0c.512 0 1.29.123 1.72.266.43.123 1.126.534 1.536.883.409.349.962 1.129 1.228 1.744.409.924.471 1.355.389 2.546-.062.8-.266 1.765-.471 2.155-.184.39-.635 1.026-1.003 1.396-.348.39-.921.841-1.249 1.026-.409.205-1.146.328-2.15.328-1.31.02-1.678-.061-2.497-.554a3.78 3.78 0 0 1-1.536-1.519c-.45-.78-.573-1.313-.634-2.627-.062-1.252 0-1.868.286-2.566.205-.513.614-1.19.901-1.519.287-.328.983-.82 1.535-1.088.594-.266 1.413-.472 1.945-.472Zm-1.801 3.263c-.123.226-.307.862-.369 1.416-.061.534-.02 1.355.103 1.848.163.615.409.985.9 1.272.348.226.963.41 1.331.41.389 0 .88-.184 1.229-.471.327-.308.655-.883.818-1.499.205-.76.226-1.231.062-1.93-.123-.512-.43-1.128-.676-1.375-.266-.266-.798-.513-1.187-.574-.41-.062-.983.02-1.331.184-.327.144-.737.473-.86.719h-.02Zm13.655-3.264v2.36l-.819.165c-.45.082-1.105.37-1.433.657-.348.287-.696.862-.819 1.293-.102.41-.205 1.888-.205 5.788h-2.456V15.99h2.456v1.334l.369-.452c.184-.246.635-.595.962-.76.328-.184.921-.328 1.945-.328Zm5.016 0c.553 0 1.392.185 1.843.39.45.185 1.044.637 1.33.965.287.328.696 1.006.881 1.519.225.575.348 1.314.245 2.976h-3.378c-3.275 0-3.378.02-3.296.41.041.226.143.616.246.883.102.247.43.616.737.8.348.227.921.33 1.494.309.676-.02 1.044-.165 1.433-.534.41-.431.717-.534 1.577-.534 1.023 0 1.085.02.962.473-.082.246-.307.697-.512 1.026-.225.308-.778.78-1.269 1.047-.471.267-1.228.554-1.679.615-.45.082-1.31.041-1.904-.061-.716-.164-1.31-.452-1.801-.883-.41-.37-.942-1.047-1.167-1.498-.328-.637-.43-1.211-.43-2.566 0-1.498.082-1.888.532-2.77.287-.555.696-1.191.901-1.376.225-.185.798-.534 1.31-.76a5.257 5.257 0 0 1 1.945-.43Zm-1.29 2.32c-.245.143-.594.554-.757.923-.164.35-.307.74-.307.863s.859.205 2.149.205c2.088 0 2.15-.02 2.15-.452 0-.267-.164-.698-.348-.965-.205-.287-.676-.636-1.044-.78-.348-.143-.676-.266-.717-.246-.02 0-.184.062-.348.123-.164.041-.512.206-.778.329Zm10.707-2.279c.676.041 1.577.267 2.007.493.45.205.921.595 1.085.862.164.246.348.739.594 1.683h-1.024c-.901 0-1.085-.061-1.474-.616-.389-.513-.614-.615-1.331-.615-.573-.02-1.003.123-1.249.349-.204.205-.348.554-.307.78.041.205.287.513.573.636.287.144 1.147.43 1.945.616.799.205 1.72.574 2.048.8.348.247.737.76.88 1.232.225.657.225 1.005.041 1.642-.143.451-.45 1.047-.676 1.293-.245.267-.737.636-1.064.821-1.273.702-2.976.602-4.293-.014a2.869 2.869 0 0 1-.211-.11c-.451-.266-.963-.677-1.147-.923-.184-.246-.409-.698-.593-1.58h1.228c.962 0 1.228.061 1.228.308 0 .164.205.451.471.615.246.165.799.308 1.229.308.552 0 .921-.143 1.269-.513.286-.287.512-.595.512-.718s-.164-.37-.348-.575c-.205-.205-1.065-.534-1.904-.718-.84-.206-1.843-.534-2.191-.76-.368-.226-.819-.739-.983-1.129-.163-.39-.307-.965-.307-1.273 0-.328.205-.903.451-1.293.266-.39.88-.923 1.392-1.19.737-.39 1.167-.472 2.149-.41Zm10.708 1.601c.471 0 1.105.103 1.433.226.307.123.778.41 1.044.657.266.246.655.821.86 1.273.205.451.389 1.293.389 1.847 0 .575-.184 1.396-.389 1.847-.205.452-.676 1.109-1.024 1.437-.034.032-.066.062-.098.09-1.148 1.038-3.184 1.036-4.344.013a5.471 5.471 0 0 1-.922-1.334c-.225-.493-.389-1.314-.389-2.053 0-.903.123-1.478.471-2.155.307-.596.778-1.088 1.29-1.376a3.51 3.51 0 0 1 1.679-.472Zm-1.822 3.14a4.67 4.67 0 0 0-.062 1.684c.082.452.348 1.026.573 1.293.246.246.758.513 1.147.595.594.103.839.02 1.433-.513.696-.616.717-.657.717-2.155 0-1.375-.062-1.601-.512-2.073-.389-.41-.717-.534-1.351-.534-.533 0-.983.144-1.27.41-.245.227-.553.801-.675 1.294Zm9.765-3.14c.43 0 .492.103.492.719 0 .636-.062.718-.512.718-.287 0-.758.226-1.065.493-.573.492-.573.534-.675 6.075h-1.377l-.057-7.8h.717c.594 0 .717.083.696.432 0 .41.021.41.635-.103.368-.287.88-.534 1.146-.534Zm4.218.062c.675.02 1.085.185 2.026 1.067v-.923h1.413l-.041 4.29c-.061 4.023-.082 4.33-.491 4.885-.246.308-.655.739-.922.944-.266.205-1.003.41-1.617.472-.798.103-1.351.041-1.904-.205-.409-.185-.942-.637-1.167-.986-.225-.369-.409-.738-.409-.82 0-.103.327-.165.716-.165.512 0 .84.144 1.126.513.307.39.594.514 1.249.514.655 0 .962-.124 1.433-.616.43-.452.594-.821.594-1.334 0-.39-.041-.719-.102-.719-.062 0-.348.185-.656.41-.348.268-.88.432-1.392.432a2.866 2.866 0 0 1-1.515-.472c-.389-.267-.88-.74-1.085-1.088-.205-.329-.43-1.13-.491-1.745-.062-.616-.021-1.519.102-1.99.123-.494.451-1.17.737-1.52.287-.349.717-.718.983-.82.246-.103.88-.165 1.413-.124Zm-1.597 2.771c-.082.308-.082 1.067-.041 1.683.082.883.225 1.232.655 1.601.286.246.757.452 1.044.452.287 0 .696-.082.921-.206.225-.123.553-.513.737-.862.225-.472.307-1.046.266-1.847-.061-.883-.204-1.273-.593-1.683-.369-.41-.717-.534-1.27-.534-.491 0-.921.144-1.187.41-.225.227-.471.658-.532.986Zm-15.805 3.325c.102 0 .348.082.573.205.225.124.409.411.409.678.021.246-.102.575-.245.718-.144.144-.553.226-.881.206-.511-.062-.634-.165-.675-.678-.041-.41.041-.698.307-.862.184-.144.43-.267.512-.267Z" fill="#111928"/><path opacity=".99" d="M43.99 13.424v1.334h4.299v11.495h2.661V14.758h4.095V12.09H43.989v1.334Zm40.33 1.232v1.334h-1.842v2.052h1.843c-.02 6.281.02 6.507.47 7.184.37.555.697.78 1.475.986.573.143 1.453.205 2.006.143l.962-.102v-2.258c-1.637 0-1.883-.082-2.047-.41-.123-.226-.205-1.56-.205-2.977v-2.566h2.252V15.99h-2.252V13.32h-2.661v1.335Zm-6.96 1.067c-.287.041-.819.123-1.187.164-.348.062-.963.37-1.331.677-.368.35-.778.986-.942 1.499-.245.82-.225.985.164 1.888.348.76.614 1.047 1.29 1.355.491.226 1.576.554 2.416.718.941.206 1.637.473 1.801.678.144.205.246.513.246.677.02.164-.143.472-.348.657-.246.246-.717.37-1.454.37-.962 0-1.105-.062-1.433-.616-.327-.575-.41-.616-1.74-.616s-1.372.02-1.249.472c.062.246.246.657.41.924.163.246.593.677.941.944.369.287 1.126.616 1.7.76.552.122 1.433.184 1.944.143a6.187 6.187 0 0 0 1.782-.554 3.386 3.386 0 0 0 1.392-1.293c.266-.493.512-1.211.512-1.601 0-.41-.185-1.006-.45-1.417-.267-.39-.8-.862-1.188-1.067-.39-.205-1.413-.513-2.252-.698-.84-.185-1.659-.431-1.802-.575a1.001 1.001 0 0 1-.245-.697c0-.267.184-.555.409-.678.225-.123.737-.205 1.126-.205.389 0 .9.082 1.126.205.225.123.41.35.41.513 0 .247.266.308 1.228.308 1.023 0 1.228-.061 1.228-.349 0-.205-.164-.636-.368-.985-.205-.349-.778-.821-1.27-1.047-.511-.246-1.248-.493-1.638-.534-.388-.04-.941-.061-1.228-.02Zm-17.73.451c-.347.206-.818.657-1.064.965l-.43.596-.02-1.745h-2.662v10.263h2.662c0-4.988.082-5.583.41-6.322.224-.472.695-1.047 1.064-1.273.368-.226 1.023-.41 1.433-.41h.778v-2.464c-1.188 0-1.822.185-2.17.39Zm3.4 3.88c.02 3.797.04 4.085.47 4.824.287.513.758.923 1.372 1.21.716.329 1.146.411 1.945.308a3.958 3.958 0 0 0 1.883-.739l.88-.636v1.232h2.662V15.99H69.58v6.568c-.88.924-1.412 1.252-1.74 1.334-.327.082-.84.082-1.126-.02-.286-.103-.675-.513-.86-.903-.307-.596-.368-1.273-.368-3.839v-3.14h-2.457v4.064Z" fill="#111928"/></svg>