<?xml version="1.0" encoding="utf-8"?><svg width="16" height="16" fill="none" xmlns="http://www.w3.org/2000/svg" viewBox="0 0 16 16"><path d="M2.915 4.843a.52.52 0 0 0-.168-.439L1.502 2.893v-.226h3.865L8.355 9.27l2.627-6.603h3.685v.226L13.602 3.92a.313.313 0 0 0-.118.302v7.556a.313.313 0 0 0 .118.301l1.04 1.028v.227H9.414v-.226l1.076-1.054c.106-.106.106-.138.106-.3V5.646l-2.995 7.662h-.404L3.711 5.646v5.136a.714.714 0 0 0 .193.589l1.4 1.712v.225h-3.97v-.225l1.4-1.712a.687.687 0 0 0 .18-.59V4.844Z" fill="#111928"/></svg>