<?xml version="1.0" encoding="utf-8"?><svg width="30" height="30" fill="none" xmlns="http://www.w3.org/2000/svg" viewBox="0 0 30 30"><path fill-rule="evenodd" clip-rule="evenodd" d="M15.645 2.713a.938.938 0 0 0-1.29 0 14.011 14.011 0 0 1-9.846 3.85.938.938 0 0 0-.903.643 15.925 15.925 0 0 0-.793 4.982c0 7.427 5.08 13.666 11.953 15.435.154.04.314.04.468 0 6.874-1.769 11.954-8.008 11.954-15.435 0-1.738-.28-3.413-.794-4.982a.938.938 0 0 0-.903-.645l-.178.002a14.01 14.01 0 0 1-9.668-3.85Zm3.867 10.02a.936.936 0 0 0-.543-1.478.938.938 0 0 0-.982.388l-4.044 5.662-2.03-2.03a.938.938 0 0 0-1.325 1.325l2.812 2.813a.938.938 0 0 0 1.425-.118l4.688-6.562Z" fill="#13C296"/></svg>