<?xml version="1.0" encoding="utf-8"?><svg width="48" height="48" fill="none" xmlns="http://www.w3.org/2000/svg" viewBox="0 0 48 48"><path d="M12.075 46.65c-.675 0-1.35-.225-1.875-.6-1.05-.75-1.65-2.1-1.425-3.375l1.95-12.075-8.4-8.625c-.9-.9-1.2-2.25-.825-3.525.375-1.2 1.425-2.1 2.625-2.25l11.625-1.875L21 3.3c.6-1.2 1.725-1.95 3-1.95s2.475.75 3 1.95l5.25 10.95 11.55 1.8c1.2.225 2.25 1.05 2.625 2.25.45 1.275.075 2.625-.825 3.525l-8.325 8.7 1.95 12.15c.225 1.35-.3 2.625-1.425 3.375-1.05.75-2.325.825-3.45.225L24 40.65l-10.35 5.625c-.45.3-1.05.375-1.575.375ZM4.725 19.5v.15l8.775 9c.525.525.75 1.35.675 2.1L12.15 43.275v.075l10.8-5.85c.675-.375 1.5-.375 2.25 0L36 43.35v-.075l-2.025-12.6c-.15-.75.15-1.5.675-2.1l8.775-9c.075-.075 0-.15 0-.15L31.35 17.55c-.75-.15-1.425-.6-1.725-1.35L24 4.8l-5.4 11.475c-.3.675-.975 1.2-1.725 1.35L4.725 19.5Z" fill="#13C296"/></svg>