<?xml version="1.0" encoding="utf-8"?><svg width="36" height="36" fill="none" xmlns="http://www.w3.org/2000/svg" viewBox="0 0 36 36"><path fill-rule="evenodd" clip-rule="evenodd" d="M9.892 14.625c1.107-4.5 3.877-6.75 8.308-6.75 6.646 0 7.477 5.063 10.8 5.906 2.215.563 4.154-.28 5.815-2.531-1.107 4.5-3.877 6.75-8.308 6.75-6.646 0-7.477-5.063-10.8-5.906-2.215-.563-4.154.28-5.815 2.531ZM1.584 24.75C2.692 20.25 5.461 18 9.892 18c6.646 0 7.477 5.063 10.8 5.906 2.215.563 4.154-.28 5.815-2.531-1.107 4.5-3.877 6.75-8.307 6.75-6.646 0-7.477-5.063-10.8-5.906-2.216-.563-4.154.28-5.816 2.531Z" fill="#fff"/></svg>