<?xml version="1.0" encoding="utf-8"?><svg width="20" height="20" xmlns="http://www.w3.org/2000/svg" viewBox="0 0 20 20"><path d="m12.283 7.5-.288 7.5m-3.99 0-.288-7.5m8.306-2.675c.285.043.569.09.852.138m-.852-.138-.89 11.57a1.875 1.875 0 0 1-1.87 1.73H6.737a1.875 1.875 0 0 1-1.87-1.73l-.89-11.57m12.046 0a40.08 40.08 0 0 0-2.898-.33m-9.148.33c-.285.043-.569.088-.852.138m.852-.138a40.097 40.097 0 0 1 2.898-.33m6.25 0V3.73c0-.983-.758-1.803-1.742-1.834-.922-.03-1.844-.03-2.766 0-.984.03-1.742.851-1.742 1.834v.763m6.25 0c-2.08-.16-4.17-.16-6.25 0"/></svg>