<?xml version="1.0" encoding="utf-8"?><svg width="36" height="36" fill="none" xmlns="http://www.w3.org/2000/svg" viewBox="0 0 36 36"><path d="M33.75 31.05H3.544V3.712c0-.675-.563-1.293-1.294-1.293-.731 0-1.294.562-1.294 1.293v28.632c0 .675.563 1.294 1.294 1.294h31.5c.675 0 1.294-.563 1.294-1.294 0-.732-.619-1.294-1.294-1.294Z" fill="#fff"/><path d="M10.631 23.063a4.333 4.333 0 0 0 4.332-4.332c0-.45-.057-.956-.225-1.35l2.306-1.462c.787.675 1.744 1.125 2.869 1.125a4.333 4.333 0 0 0 4.33-4.332c0-.393-.055-.843-.168-1.237l2.981-1.631a4.249 4.249 0 0 0 3.038 1.237 4.333 4.333 0 0 0 4.331-4.331c0-2.363-1.969-4.331-4.331-4.331-2.363 0-4.332 1.968-4.332 4.33 0 .282.057.62.113.9l-3.15 1.745a4.367 4.367 0 0 0-2.756-1.013 4.333 4.333 0 0 0-4.332 4.332c0 .393.057.73.17 1.068L13.33 15.3a4.333 4.333 0 0 0-6.975 3.431c0 2.363 1.856 4.331 4.275 4.331ZM30.094 4.95c1.012 0 1.8.787 1.8 1.8 0 1.012-.788 1.8-1.8 1.8-1.013 0-1.8-.788-1.8-1.8 0-1.013.787-1.8 1.8-1.8Zm-10.181 5.962c1.012 0 1.8.788 1.8 1.8 0 1.013-.788 1.8-1.8 1.8-1.013 0-1.8-.787-1.8-1.8 0-1.012.787-1.8 1.8-1.8Zm-9.282 6.02c1.013 0 1.8.787 1.8 1.8 0 1.012-.787 1.8-1.8 1.8-1.012 0-1.8-.788-1.8-1.8 0-1.013.788-1.8 1.8-1.8Z" fill="#fff"/></svg>