<?xml version="1.0" encoding="utf-8"?><svg width="48" height="48" fill="none" xmlns="http://www.w3.org/2000/svg" viewBox="0 0 48 48"><path d="M40.494 28.104A17 17 0 0 1 19.89 40.492C10.788 38.22 5.24 29 7.508 19.9c2.268-9.1 11.48-14.66 20.576-12.39 9.124 2.24 14.674 11.488 12.41 20.596v-.002Z" stroke="#000" stroke-width="2"/><path d="m18.8 29.824 3.386-13.584m-2.912-.726 8.362 2.086c5.456 1.36 4.24 7.754-1.572 6.306 6.368 1.588 5.72 9.156-1.814 7.278-3.682-.92-7.626-1.9-7.626-1.9m3.988-6.736 5.338 1.33m-2.794-7.396.726-2.91m-4.84 19.406.726-2.912m7.268-12.616.726-2.91m-4.838 19.406.726-2.912" stroke="#000" stroke-width="2" stroke-linecap="square" stroke-linejoin="round"/></svg>