<?xml version="1.0" encoding="utf-8"?><svg width="20" height="20" fill="none" xmlns="http://www.w3.org/2000/svg" viewBox="0 0 20 20"><path d="M1.875 10.633c0 1.334.936 2.495 2.256 2.69.89.13 1.79.232 2.698.303.389.03.744.234.961.559L10 17.5l2.21-3.315a1.27 1.27 0 0 1 .96-.558 40.445 40.445 0 0 0 2.7-.305c1.32-.194 2.255-1.354 2.255-2.69V5.619c0-1.336-.936-2.496-2.256-2.69A40.329 40.329 0 0 0 10 2.5c-1.993 0-3.953.146-5.87.428-1.32.194-2.255 1.355-2.255 2.69V10.633Z" stroke="#637381" stroke-width="1.5" stroke-linecap="round" stroke-linejoin="round"/></svg>