<?xml version="1.0" encoding="utf-8"?><svg width="20" height="20" fill="none" xmlns="http://www.w3.org/2000/svg" viewBox="0 0 20 20"><path d="M18.125 5.625v8.75a1.875 1.875 0 0 1-1.875 1.875H3.75a1.875 1.875 0 0 1-1.875-1.875v-8.75m16.25 0A1.875 1.875 0 0 0 16.25 3.75H3.75a1.875 1.875 0 0 0-1.875 1.875m16.25 0v.202a1.875 1.875 0 0 1-.892 1.597l-6.25 3.846a1.875 1.875 0 0 1-1.966 0l-6.25-3.845a1.875 1.875 0 0 1-.892-1.597v-.203" stroke="#13C296" stroke-width="1.5" stroke-linecap="round" stroke-linejoin="round"/></svg>