<?xml version="1.0" encoding="utf-8"?><svg width="16" height="16" xmlns="http://www.w3.org/2000/svg" viewBox="0 0 16 16"><path d="M2.353 1.647a.5.5 0 0 0-.707.706l12 12a.5.5 0 1 0 .707-.706l-12-12Zm12.764 6.722a7.5 7.5 0 0 1-1.754 2.873l-2.066-2.066a3.5 3.5 0 0 0-4.474-4.473L5.172 3.05a7.504 7.504 0 0 1 9.945 4.575c.08.242.08.502 0 .743Z"/><path d="M10.5 8c0 .12-.008.238-.024.353l-2.83-2.828A2.5 2.5 0 0 1 10.502 8Zm-2.146 2.475L5.525 7.646a2.5 2.5 0 0 0 2.83 2.829h-.001Z"/><path d="M4.5 8c0-.413.07-.809.202-1.176L2.636 4.757A7.5 7.5 0 0 0 .882 7.631c-.08.241-.08.501 0 .742a7.503 7.503 0 0 0 9.945 4.576l-1.651-1.652A3.5 3.5 0 0 1 4.5 8Z"/></svg>