<?xml version="1.0" encoding="utf-8"?><svg width="25" height="25" fill="none" xmlns="http://www.w3.org/2000/svg" viewBox="0 0 25 25"><g clip-path="url(#bfa)"><path d="M8.861.812a11.865 11.865 0 0 0 .812 22.67c1.987.512 4.07.535 6.067.065a10.712 10.712 0 0 0 4.857-2.524 10.77 10.77 0 0 0 3-4.924c.58-2.048.683-4.202.301-6.296h-11.16v4.63h6.464a5.573 5.573 0 0 1-2.374 3.66 6.788 6.788 0 0 1-2.612 1.03 7.743 7.743 0 0 1-2.831 0 6.976 6.976 0 0 1-2.635-1.149 7.369 7.369 0 0 1-2.718-3.641 7.181 7.181 0 0 1 0-4.618 7.36 7.36 0 0 1 1.72-2.796 6.97 6.97 0 0 1 7.023-1.833 6.43 6.43 0 0 1 2.557 1.5c.729-.725 1.456-1.452 2.183-2.181.375-.392.784-.765 1.153-1.166A11.475 11.475 0 0 0 16.85.884 12 12 0 0 0 8.861.812Z" fill="#fff"/><path d="M8.86.813a12 12 0 0 1 7.99.07 11.475 11.475 0 0 1 3.816 2.366c-.375.401-.77.776-1.153 1.166-.728.726-1.455 1.45-2.181 2.171a6.432 6.432 0 0 0-2.558-1.5 6.97 6.97 0 0 0-7.023 1.827 7.36 7.36 0 0 0-1.722 2.795l-3.886-3.01A11.912 11.912 0 0 1 8.86.814Z" fill="#E33629"/><path d="M1.111 9.68a11.813 11.813 0 0 1 1.032-2.982L6.03 9.715a7.181 7.181 0 0 0 0 4.618c-1.295 1-2.591 2.005-3.887 3.015A11.874 11.874 0 0 1 1.11 9.68Z" fill="#F8BD00"/><path d="M12.738 9.802h11.16a13.931 13.931 0 0 1-.302 6.296 10.77 10.77 0 0 1-3 4.924c-1.254-.979-2.514-1.95-3.768-2.929a5.573 5.573 0 0 0 2.373-3.664h-6.463c-.002-1.541 0-3.084 0-4.627Z" fill="#587DBD"/><path d="M2.14 17.348c1.297-1 2.592-2.005 3.887-3.015a7.369 7.369 0 0 0 2.723 3.641c.791.56 1.69.948 2.64 1.14a7.748 7.748 0 0 0 2.831 0 6.788 6.788 0 0 0 2.612-1.031c1.255.979 2.515 1.95 3.769 2.929a10.712 10.712 0 0 1-4.856 2.525c-1.998.47-4.08.448-6.068-.065a11.813 11.813 0 0 1-4.312-2.173 11.943 11.943 0 0 1-3.225-3.951Z" fill="#319F43"/></g><defs><clipPath id="bfa"><path fill="#fff" transform="translate(.5 .023)" d="M0 0h24v24H0z"/></clipPath></defs></svg>