<?xml version="1.0" encoding="utf-8"?><svg width="36" height="36" fill="none" xmlns="http://www.w3.org/2000/svg" viewBox="0 0 36 36"><path d="M12.206 1.913H5.062A3.505 3.505 0 0 0 1.575 5.4v7.144a3.505 3.505 0 0 0 3.487 3.487h7.144a3.505 3.505 0 0 0 3.488-3.487V5.456c.056-1.968-1.519-3.543-3.488-3.543ZM13.22 12.6c0 .563-.45 1.013-1.013 1.013H5.062c-.562 0-1.012-.45-1.012-1.013V5.456c0-.562.45-1.012 1.012-1.012h7.144c.563 0 1.013.45 1.013 1.012V12.6ZM30.937 1.913h-7.143A3.505 3.505 0 0 0 20.306 5.4v7.144a3.505 3.505 0 0 0 3.488 3.487h7.143a3.505 3.505 0 0 0 3.488-3.487V5.456c0-1.968-1.575-3.543-3.488-3.543ZM31.95 12.6c0 .563-.45 1.013-1.013 1.013h-7.143c-.563 0-1.013-.45-1.013-1.013V5.456c0-.562.45-1.012 1.013-1.012h7.143c.563 0 1.013.45 1.013 1.012V12.6ZM12.206 19.856H5.062a3.505 3.505 0 0 0-3.487 3.488v7.144a3.505 3.505 0 0 0 3.487 3.487h7.144a3.505 3.505 0 0 0 3.488-3.487V23.4c.056-1.969-1.519-3.544-3.488-3.544Zm1.013 10.688c0 .562-.45 1.012-1.013 1.012H5.062c-.562 0-1.012-.45-1.012-1.012V23.4c0-.562.45-1.012 1.012-1.012h7.144c.563 0 1.013.45 1.013 1.012v7.144ZM30.937 19.856h-7.143a3.505 3.505 0 0 0-3.488 3.488v7.144a3.505 3.505 0 0 0 3.488 3.487h7.143a3.505 3.505 0 0 0 3.488-3.487V23.4c0-1.969-1.575-3.544-3.488-3.544Zm1.013 10.688c0 .562-.45 1.012-1.013 1.012h-7.143c-.563 0-1.013-.45-1.013-1.012V23.4c0-.562.45-1.012 1.013-1.012h7.143c.563 0 1.013.45 1.013 1.012v7.144Z" fill="#fff"/></svg>