<?xml version="1.0" encoding="utf-8"?><svg width="2000" height="966.56" fill="none" xmlns="http://www.w3.org/2000/svg" viewBox="0 0 2123 1026"><path d="M1571.81 583.906c39.7 43.934 108.68 43.934 148.38 0l376.73-416.857C2155.03 102.744 2109.4 0 2022.73 0h-753.46c-86.67 0-132.3 102.744-74.19 167.049l376.73 416.857Z" fill="url(#bia)"/><path d="M402.809 583.906c39.704 43.934 108.678 43.934 148.382 0l376.728-416.857C986.034 102.744 940.403 0 853.728 0H100.272C13.598 0-32.034 102.744 26.081 167.049l376.728 416.857Z" fill="url(#bib)"/><path d="M986.775 214.213c39.705-43.983 108.745-43.983 148.445 0l582.13 644.774c58.07 64.317 12.43 167.013-74.22 167.013H478.874c-86.651 0-132.292-102.696-74.225-167.013l582.126-644.774Z" fill="url(#bic)"/><defs><linearGradient id="bia" x1="1163" y1="-160.5" x2="1838" y2="444.5" gradientUnits="userSpaceOnUse"><stop stop-color="#fff"/><stop offset="1" stop-color="#F6F9FF"/></linearGradient><linearGradient id="bib" x1="75.939" y1="668.871" x2="922.5" y2="51.5" gradientUnits="userSpaceOnUse"><stop stop-color="#fff"/><stop offset="1" stop-color="#F6F9FF"/></linearGradient><linearGradient id="bic" x1="523.174" y1="128.146" x2="1659.2" y2="955.793" gradientUnits="userSpaceOnUse"><stop stop-color="#fff"/><stop offset="1" stop-color="#F6F9FF"/></linearGradient></defs></svg>