<?xml version="1.0" encoding="utf-8"?><svg width="36" height="36" fill="none" xmlns="http://www.w3.org/2000/svg" viewBox="0 0 36 36"><path d="M34.987 16.987c-.056-1.968-1.012-3.768-2.474-4.95.056-1.687-.45-3.318-1.52-4.556A5.674 5.674 0 0 0 27.226 5.4c-.9-1.856-2.588-3.15-4.613-3.431-1.35-.17-2.643.056-3.768.675a1.888 1.888 0 0 0-1.632-.9A12.427 12.427 0 0 0 8.382 5.4a12.427 12.427 0 0 0-3.657 8.831c0 .563-.169 1.069-.45 1.519L1.35 20.419a2.672 2.672 0 0 0-.338 1.35 2.52 2.52 0 0 0 2.532 2.53H4.78v2.476a3.769 3.769 0 0 0 3.769 3.769c.394 0 .787-.057 1.125-.17l1.35-.393v2.475c0 1.069.844 1.913 1.912 1.913h4.388c.675 0 1.294-.394 1.631-.9a5.637 5.637 0 0 0 2.869.787c.45 0 .9-.056 1.35-.169 2.25-.506 3.938-2.193 4.556-4.387 1.238-.45 2.363-1.294 3.094-2.475a6.6 6.6 0 0 0 1.012-4.106c1.97-1.294 3.263-3.6 3.15-6.132ZM16.65 31.725H13.5V28.18c0-.394-.169-.787-.506-1.012-.338-.225-.732-.338-1.125-.17l-3.038.9h-.056c-.056 0-.113.057-.281.057a1.248 1.248 0 0 1-1.238-1.237v-3.77c0-.674-.562-1.293-1.294-1.293H3.487l2.925-4.669c.563-.843.844-1.856.844-2.868a9.957 9.957 0 0 1 2.925-7.088 9.987 9.987 0 0 1 6.413-2.925v27.619h.056ZM29.981 20.98a1.3 1.3 0 0 0-.844 1.463c.282 1.125.057 2.25-.562 3.206-.563.844-1.35 1.406-2.306 1.631-.506.113-.9.506-1.013 1.069-.281 1.912-1.631 2.869-2.812 3.15-1.294.281-2.475-.169-3.375-1.181V5.68c.787-.956 1.912-1.406 3.094-1.237 1.35.225 2.418 1.18 2.868 2.53a1.27 1.27 0 0 0 1.181.845h.057c1.012 0 1.969.45 2.644 1.237.787.9 1.125 2.138.9 3.375-.113.506.168 1.069.618 1.294 1.125.619 1.857 1.912 1.913 3.319.225 1.856-.844 3.43-2.363 3.937Z" fill="#fff"/></svg>