<?xml version="1.0" encoding="utf-8"?><svg width="36" height="36" fill="none" xmlns="http://www.w3.org/2000/svg" viewBox="0 0 36 36"><path d="M33.3 2.25A4.424 4.424 0 0 0 30.15.956h-.056c-.338 0-.731.057-1.069.113L9.9 5.794H6.131a4.777 4.777 0 0 0-4.78 4.781v8.269A4.797 4.797 0 0 0 4.668 23.4l2.362 9.506a2.772 2.772 0 0 0 2.7 2.138H10.8c.225 0 .45 0 .675-.056 1.519-.338 2.419-1.857 2.081-3.375l-1.743-7.482 17.268 4.275c.338.113.732.113 1.07.113.843 0 1.63-.225 2.362-.675a4.515 4.515 0 0 0 2.025-2.813c.056-.337.112-.618.112-1.012V5.456c0-1.237-.506-2.362-1.35-3.206ZM11.306 8.1 18 6.469v16.593l-6.694-1.687V8.1Zm-7.425 2.475a2.257 2.257 0 0 1 2.25-2.25h2.7v12.713h-2.7a2.257 2.257 0 0 1-2.25-2.25v-8.213Zm6.975 21.881H9.675c-.112 0-.225-.112-.281-.225l-2.081-8.606h1.743l2.025 8.55c0 .113-.056.281-.225.281Zm21.207-8.044c-.113.507-.45.957-.9 1.238s-1.013.338-1.52.225l-9.112-2.25V5.794l9.113-2.25c.169-.056.281-.056.45-.056.506 0 1.012.225 1.35.562.394.338.562.844.619 1.35v18.506c.056.225 0 .338 0 .507Z" fill="#fff"/></svg>