<?xml version="1.0" encoding="utf-8"?><svg width="48" height="48" fill="none" xmlns="http://www.w3.org/2000/svg" viewBox="0 0 48 48"><path d="M23.973 47.682c-.182 0-.363-.046-.527-.14L3.826 36.213a1.054 1.054 0 0 1-.527-.913V12.645c0-.376.2-.724.527-.912L23.446.405a1.055 1.055 0 0 1 1.054 0l19.62 11.328c.326.188.527.536.527.912v22.656c0 .377-.2.724-.527.913L24.5 47.54a1.052 1.052 0 0 1-.527.142ZM5.407 34.694l18.566 10.719 18.567-10.72V13.254L23.973 2.534 5.407 13.255v21.439Z" fill="#111928"/><path d="M14.9 36.269c-.467 0-.886-.312-1.014-.773l-3.058-11.058v8.016a1.054 1.054 0 0 1-2.108 0V16.676a1.054 1.054 0 0 1 2.07-.28l3.058 11.057V13.441a1.054 1.054 0 0 1 2.107 0v21.774a1.052 1.052 0 0 1-1.054 1.054ZM39.225 16.96c-.186 0-.374-.049-.544-.152l-6.69-4.043a1.054 1.054 0 0 1 1.09-1.804l6.69 4.043a1.054 1.054 0 0 1-.546 1.956ZM19.369 39.432a1.054 1.054 0 0 1-1.054-1.054V9.593c0-.37.195-.714.513-.905l4.732-2.827c.334-.2.751-.198 1.085.003l5.723 3.458a1.055 1.055 0 0 1-1.09 1.804l-5.181-3.13-3.675 2.195v28.187c0 .582-.471 1.054-1.053 1.054Z" fill="#111928"/><path d="M28.642 24.937h-9.273a1.054 1.054 0 0 1 0-2.107h9.273a1.054 1.054 0 0 1 0 2.107ZM35.74 36.005a1.054 1.054 0 0 1-1.055-1.053V13.799a1.054 1.054 0 0 1 2.108 0v21.152c0 .582-.471 1.054-1.054 1.054Z" fill="#111928"/></svg>