<?xml version="1.0" encoding="utf-8"?><svg width="16" height="16" fill="none" xmlns="http://www.w3.org/2000/svg" viewBox="0 0 16 16"><path d="m14.473 7.533-1.5-1.5a.677.677 0 0 0-.973.94l.36.36H6.773a.667.667 0 0 0 0 1.334H12.4l-.36.36a.668.668 0 1 0 .94.94l1.487-1.487a.667.667 0 0 0 .006-.947Z" fill="#fff"/><path d="M5.44 8a1.333 1.333 0 0 1 1.333-1.333h4.174V4A2.667 2.667 0 0 0 8.28 1.333H4A2.667 2.667 0 0 0 1.333 4v8A2.667 2.667 0 0 0 4 14.667h4.28A2.667 2.667 0 0 0 10.947 12V9.333H6.773A1.333 1.333 0 0 1 5.44 8Z" fill="#fff"/></svg>