<?xml version="1.0" encoding="utf-8"?><svg width="20" height="21" fill="none" xmlns="http://www.w3.org/2000/svg" viewBox="0 0 20 21"><g clip-path="url(#cfa)" fill="#13C296"><path d="M15.188 20.422c-.844 0-1.813-.219-2.875-.625-2.125-.844-4.47-2.469-6.563-4.563-2.094-2.093-3.719-4.437-4.562-6.593-.938-2.313-.844-4.22.25-5.282.03-.03.093-.062.125-.093l2.625-1.563a1.477 1.477 0 0 1 1.937.438L7.97 4.89c.437.656.25 1.53-.375 1.968l-1.125.782c.812 1.312 3.125 4.53 6.812 6.843l.688-1c.531-.75 1.375-.968 2.062-.5l2.75 1.844c.625.438.813 1.281.438 1.938l-1.563 2.625c-.03.062-.062.093-.093.125-.563.593-1.375.906-2.375.906Zm-12.813-16c-.594.656-.562 2 .125 3.719.781 1.968 2.281 4.125 4.25 6.093 1.938 1.938 4.125 3.438 6.063 4.22 1.687.687 3.03.718 3.718.124l1.5-2.562v-.063l-2.75-1.844s-.062.032-.125.125l-.687 1c-.438.625-1.281.813-1.906.407-3.938-2.438-6.375-5.844-7.25-7.22-.407-.655-.25-1.5.375-1.937l1.125-.78v-.032l-1.844-2.75c0-.031-.031-.031-.063 0l-2.53 1.5ZM18.313 9.86c-.375 0-.656-.282-.688-.657-.25-3.156-2.844-5.687-6.031-5.906a.703.703 0 0 1-.656-.75.703.703 0 0 1 .75-.656c3.875.25 7.031 3.312 7.344 7.187a.7.7 0 0 1-.657.75c0 .032-.031.032-.062.032Z"/><path d="M15.219 10.141a.681.681 0 0 1-.688-.625c-.187-1.687-1.5-3-3.187-3.219-.375-.031-.656-.406-.625-.781.031-.375.406-.656.781-.625a5.048 5.048 0 0 1 4.438 4.438.722.722 0 0 1-.625.78c-.063.032-.094.032-.094.032Z"/></g><defs><clipPath id="cfa"><path fill="#fff" transform="translate(0 .953)" d="M0 0h20v20H0z"/></clipPath></defs></svg>