<?xml version="1.0" encoding="utf-8"?><svg width="36" height="36" fill="none" xmlns="http://www.w3.org/2000/svg" viewBox="0 0 36 36"><path d="m30.15 4.219-11.419-3.15a2.972 2.972 0 0 0-1.406 0L5.85 4.219c-1.181.337-2.025 1.406-2.025 2.643v8.325c0 8.72 5.175 16.425 13.163 19.632.337.112.675.225 1.012.225.337 0 .675-.056 1.012-.225C27 31.612 32.175 23.85 32.175 15.13V6.863c0-1.238-.844-2.307-2.025-2.644Zm-.506 10.912c0 7.538-4.669 14.513-11.531 17.325h-.17c-7.03-2.812-11.587-9.619-11.587-17.269V6.864c0-.057.056-.17.113-.17l11.475-3.15h.112l11.475 3.15c.056 0 .113.113.113.17v8.268Z" fill="#fff"/><path d="m24.356 12.713-7.762 6.525-3.488-2.925c-.562-.45-1.35-.394-1.8.168-.45.563-.394 1.35.169 1.8l4.275 3.6c.225.225.506.282.787.282.282 0 .563-.113.788-.282l8.662-7.256c.563-.45.62-1.237.17-1.8-.45-.506-1.295-.562-1.8-.112Z" fill="#fff"/></svg>