<?xml version="1.0" encoding="utf-8"?><svg width="36" height="36" fill="none" xmlns="http://www.w3.org/2000/svg" viewBox="0 0 36 36"><path d="M4.725 16.312c.169 0 .394-.056.562-.112l6.244-2.194c.675-.225 1.013-.956.788-1.631-.225-.675-.957-1.013-1.632-.788l-3.88 1.35c1.855-4.837 6.58-8.1 11.98-8.1 5.907 0 11.025 3.938 12.488 9.563a1.24 1.24 0 0 0 1.519.9 1.24 1.24 0 0 0 .9-1.519C31.95 7.031 25.819 2.306 18.73 2.306c-6.3 0-11.869 3.713-14.175 9.281L3.375 8.212c-.225-.675-.956-1.012-1.631-.787C1.069 7.65.73 8.38.956 9.056l2.138 6.131c.337.732.956 1.125 1.63 1.125ZM34.931 27.956l-2.306-6.018c-.169-.394-.45-.732-.844-.9a1.575 1.575 0 0 0-1.237 0L24.356 23.4c-.675.225-.956.956-.731 1.631.225.675.956.957 1.631.732l3.881-1.463a13.16 13.16 0 0 1-11.53 6.806c-5.57 0-10.463-3.487-12.207-8.662-.225-.675-.956-1.013-1.575-.788-.675.225-1.013.956-.788 1.575 2.082 6.188 7.932 10.35 14.57 10.35 5.793 0 11.024-3.206 13.668-8.156l1.294 3.431c.168.506.675.788 1.18.788.17 0 .282 0 .45-.113.676-.168.957-.9.732-1.575Z" fill="#fff"/></svg>