<?xml version="1.0" encoding="utf-8"?><svg width="18" height="18" fill="none" xmlns="http://www.w3.org/2000/svg" viewBox="0 0 18 18"><path d="M9 0C4.032 0 0 4.032 0 9s4.032 9 9 9 9-4.032 9-9-4.032-9-9-9Zm4.176 6.12c-.135 1.422-.72 4.878-1.017 6.471-.126.675-.378.9-.612.927-.522.045-.918-.342-1.422-.675-.792-.522-1.242-.846-2.007-1.35-.891-.585-.315-.909.198-1.431.135-.135 2.439-2.232 2.484-2.421a.18.18 0 0 0-.045-.162c-.054-.045-.126-.027-.189-.018-.081.018-1.341.855-3.798 2.511-.36.243-.684.369-.972.36-.324-.009-.936-.18-1.395-.333-.567-.18-1.008-.279-.972-.594.018-.162.243-.324.666-.495 2.628-1.143 4.374-1.899 5.247-2.259 2.502-1.044 3.015-1.224 3.357-1.224.072 0 .243.018.351.108.09.072.117.171.126.243-.009.054.009.216 0 .342Z" fill="#637381"/></svg>