<?xml version="1.0" encoding="utf-8"?><svg width="16" height="16" xmlns="http://www.w3.org/2000/svg" viewBox="0 0 16 16"><path d="M14.635 4.3c.09-.104-.027-.24-.159-.191-.294.108-.563.18-.96.224.489-.272.716-.662.901-1.138.045-.115-.09-.22-.206-.165-.47.223-.979.389-1.513.487a2.997 2.997 0 0 0-2.113-.85c-1.6 0-2.896 1.205-2.896 2.692 0 .211.026.417.075.614-2.299-.107-4.348-1.09-5.772-2.598-.098-.103-.275-.09-.336.036-.162.337-.252.71-.252 1.102 0 .934.511 1.758 1.288 2.241a3.074 3.074 0 0 1-.989-.193c-.149-.056-.32.042-.3.193.154 1.157 1.09 2.112 2.3 2.338a3.092 3.092 0 0 1-.954.088c-.16-.01-.29.134-.222.271.454.906 1.433 1.538 2.573 1.557a6.09 6.09 0 0 1-3.595 1.153c-.168 0-.24.215-.091.288a8.685 8.685 0 0 0 3.838.884c5.326 0 8.238-4.103 8.238-7.661 0-.117-.003-.233-.008-.349.432-.29.82-.636 1.153-1.023Z"/></svg>